%TF.GenerationSoftware,KiCad,Pcbnew,5.1.9-73d0e3b20d~88~ubuntu20.04.1*%
%TF.CreationDate,2021-04-22T17:01:53+00:00*%
%TF.ProjectId,RPHat,52504861-742e-46b6-9963-61645f706362,rev?*%
%TF.SameCoordinates,Original*%
%TF.FileFunction,Soldermask,Top*%
%TF.FilePolarity,Negative*%
%FSLAX46Y46*%
G04 Gerber Fmt 4.6, Leading zero omitted, Abs format (unit mm)*
G04 Created by KiCad (PCBNEW 5.1.9-73d0e3b20d~88~ubuntu20.04.1) date 2021-04-22 17:01:53*
%MOMM*%
%LPD*%
G01*
G04 APERTURE LIST*
%ADD10C,3.400000*%
%ADD11R,3.400000X3.400000*%
%ADD12C,1.600000*%
%ADD13C,2.000000*%
%ADD14O,1.700000X1.700000*%
%ADD15R,1.700000X1.700000*%
G04 APERTURE END LIST*
D10*
%TO.C,REF\u002A\u002A*%
X129794000Y-74930000D03*
%TD*%
D11*
%TO.C,REF\u002A\u002A*%
X129794000Y-70358000D03*
%TD*%
%TO.C,REF\u002A\u002A*%
X131318000Y-49784000D03*
%TD*%
%TO.C,REF\u002A\u002A*%
X129794000Y-64770000D03*
%TD*%
%TO.C,REF\u002A\u002A*%
X102362000Y-63754000D03*
%TD*%
%TO.C,REF\u002A\u002A*%
X109220000Y-58166000D03*
%TD*%
%TO.C,REF\u002A\u002A*%
X97536000Y-49784000D03*
%TD*%
D12*
%TO.C,U1*%
X134620000Y-78765400D03*
X134620000Y-81305400D03*
X132080000Y-78765400D03*
X132080000Y-81305400D03*
X129540000Y-78765400D03*
X129540000Y-81305400D03*
X127000000Y-78765400D03*
X127000000Y-81305400D03*
X124460000Y-78765400D03*
X124460000Y-81305400D03*
X137160000Y-53365400D03*
X137160000Y-55905400D03*
X137160000Y-58445400D03*
X137160000Y-60985400D03*
X137160000Y-63525400D03*
X137160000Y-66065400D03*
X137160000Y-68605400D03*
X137160000Y-71145400D03*
X137160000Y-73685400D03*
X137160000Y-76225400D03*
X137160000Y-78765400D03*
X137160000Y-81305400D03*
X137160000Y-83845400D03*
X124460000Y-55905400D03*
D13*
X121920000Y-53365400D03*
D12*
X121920000Y-55905400D03*
X121920000Y-58445400D03*
X121920000Y-60985400D03*
X121920000Y-63525400D03*
X121920000Y-66065400D03*
X121920000Y-68605400D03*
X121920000Y-71145400D03*
X121920000Y-73685400D03*
X121920000Y-76225400D03*
X121920000Y-78765400D03*
X121920000Y-81305400D03*
X121920000Y-83845400D03*
X137160000Y-86385400D03*
X134620000Y-86385400D03*
X132080000Y-86385400D03*
X121920000Y-86385400D03*
X124460000Y-86385400D03*
X127000000Y-86385400D03*
X129540000Y-86385400D03*
%TD*%
D14*
%TO.C,J1*%
X92760800Y-96520000D03*
X90220800Y-96520000D03*
X92760800Y-93980000D03*
X90220800Y-93980000D03*
X92760800Y-91440000D03*
X90220800Y-91440000D03*
X92760800Y-88900000D03*
X90220800Y-88900000D03*
X92760800Y-86360000D03*
X90220800Y-86360000D03*
X92760800Y-83820000D03*
X90220800Y-83820000D03*
X92760800Y-81280000D03*
X90220800Y-81280000D03*
X92760800Y-78740000D03*
X90220800Y-78740000D03*
X92760800Y-76200000D03*
X90220800Y-76200000D03*
X92760800Y-73660000D03*
X90220800Y-73660000D03*
X92760800Y-71120000D03*
X90220800Y-71120000D03*
X92760800Y-68580000D03*
X90220800Y-68580000D03*
X92760800Y-66040000D03*
X90220800Y-66040000D03*
X92760800Y-63500000D03*
X90220800Y-63500000D03*
X92760800Y-60960000D03*
X90220800Y-60960000D03*
X92760800Y-58420000D03*
X90220800Y-58420000D03*
X92760800Y-55880000D03*
X90220800Y-55880000D03*
X92760800Y-53340000D03*
X90220800Y-53340000D03*
X92760800Y-50800000D03*
X90220800Y-50800000D03*
X92760800Y-48260000D03*
D15*
X90220800Y-48260000D03*
%TD*%
%TO.C,J3*%
X113284000Y-81280000D03*
D14*
X113284000Y-78740000D03*
X113284000Y-76200000D03*
X113284000Y-73660000D03*
X113284000Y-71120000D03*
X113284000Y-68580000D03*
X113284000Y-66040000D03*
X113284000Y-63500000D03*
X113284000Y-60960000D03*
X113284000Y-58420000D03*
X113284000Y-55880000D03*
X113284000Y-53340000D03*
%TD*%
D11*
%TO.C,REF\u002A\u002A*%
X103378000Y-49530000D03*
%TD*%
D14*
%TO.C,J2*%
X147320000Y-88900000D03*
X147320000Y-86360000D03*
X147320000Y-83820000D03*
X147320000Y-81280000D03*
X147320000Y-78740000D03*
X147320000Y-76200000D03*
X147320000Y-73660000D03*
X147320000Y-71120000D03*
X147320000Y-68580000D03*
X147320000Y-66040000D03*
X147320000Y-63500000D03*
D15*
X147320000Y-60960000D03*
%TD*%
D13*
%TO.C,R2*%
X136144000Y-99822000D03*
X136144000Y-90822000D03*
%TD*%
%TO.C,R1*%
X131064000Y-99822000D03*
X131064000Y-90822000D03*
%TD*%
M02*
