M48
; DRILL file {KiCad 5.1.9-73d0e3b20d~88~ubuntu20.04.1} date Thu Apr 22 17:01:49 2021
; FORMAT={-:-/ absolute / inch / decimal}
; #@! TF.CreationDate,2021-04-22T17:01:49+00:00
; #@! TF.GenerationSoftware,Kicad,Pcbnew,5.1.9-73d0e3b20d~88~ubuntu20.04.1
FMAT,2
INCH
T1C0.0394
T2C0.0433
T3C0.0787
%
G90
G05
T1
X3.552Y-1.9
X3.552Y-2.0
X3.552Y-2.1
X3.552Y-2.2
X3.552Y-2.3
X3.552Y-2.4
X3.552Y-2.5
X3.552Y-2.6
X3.552Y-2.7
X3.552Y-2.8
X3.552Y-2.9
X3.552Y-3.0
X3.552Y-3.1
X3.552Y-3.2
X3.552Y-3.3
X3.552Y-3.4
X3.552Y-3.5
X3.552Y-3.6
X3.552Y-3.7
X3.552Y-3.8
X3.652Y-1.9
X3.652Y-2.0
X3.652Y-2.1
X3.652Y-2.2
X3.652Y-2.3
X3.652Y-2.4
X3.652Y-2.5
X3.652Y-2.6
X3.652Y-2.7
X3.652Y-2.8
X3.652Y-2.9
X3.652Y-3.0
X3.652Y-3.1
X3.652Y-3.2
X3.652Y-3.3
X3.652Y-3.4
X3.652Y-3.5
X3.652Y-3.6
X3.652Y-3.7
X3.652Y-3.8
X4.46Y-2.1
X4.46Y-2.2
X4.46Y-2.3
X4.46Y-2.4
X4.46Y-2.5
X4.46Y-2.6
X4.46Y-2.7
X4.46Y-2.8
X4.46Y-2.9
X4.46Y-3.0
X4.46Y-3.1
X4.46Y-3.2
X5.16Y-3.5757
X5.16Y-3.93
X5.36Y-3.5757
X5.36Y-3.93
X5.8Y-2.4
X5.8Y-2.5
X5.8Y-2.6
X5.8Y-2.7
X5.8Y-2.8
X5.8Y-2.9
X5.8Y-3.0
X5.8Y-3.1
X5.8Y-3.2
X5.8Y-3.3
X5.8Y-3.4
X5.8Y-3.5
T2
X4.8Y-2.101
X4.8Y-2.201
X4.8Y-2.301
X4.8Y-2.401
X4.8Y-2.501
X4.8Y-2.601
X4.8Y-2.701
X4.8Y-2.801
X4.8Y-2.901
X4.8Y-3.001
X4.8Y-3.101
X4.8Y-3.201
X4.8Y-3.301
X4.8Y-3.401
X4.9Y-2.201
X4.9Y-3.101
X4.9Y-3.201
X4.9Y-3.401
X5.0Y-3.101
X5.0Y-3.201
X5.0Y-3.401
X5.1Y-3.101
X5.1Y-3.201
X5.1Y-3.401
X5.2Y-3.101
X5.2Y-3.201
X5.2Y-3.401
X5.3Y-3.101
X5.3Y-3.201
X5.3Y-3.401
X5.4Y-2.101
X5.4Y-2.201
X5.4Y-2.301
X5.4Y-2.401
X5.4Y-2.501
X5.4Y-2.601
X5.4Y-2.701
X5.4Y-2.801
X5.4Y-2.901
X5.4Y-3.001
X5.4Y-3.101
X5.4Y-3.201
X5.4Y-3.301
X5.4Y-3.401
T3
X3.84Y-1.96
X4.03Y-2.51
X4.07Y-1.95
X4.3Y-2.29
X5.11Y-2.55
X5.11Y-2.77
X5.11Y-2.95
X5.17Y-1.96
T0
M30
