M48
; DRILL file {KiCad (5.1.8)-1} date 06/15/21 20:05:48
; FORMAT={-:-/ absolute / metric / decimal}
; #@! TF.CreationDate,2021-06-15T20:05:48+00:00
; #@! TF.GenerationSoftware,Kicad,Pcbnew,(5.1.8)-1
; #@! TF.FileFunction,Plated,1,4,PTH
FMAT,2
METRIC
T1C0.250
T2C0.400
T3C0.950
T4C1.000
T5C1.100
T6C1.300
T7C4.500
%
G90
G05
T1
X140.94Y-107.43
X141.7Y-110.0
X141.7Y-110.6
X145.725Y-111.175
X145.744Y-106.47
X146.175Y-113.625
X146.3Y-106.908
X146.475Y-111.125
X146.95Y-107.45
X152.183Y-112.853
X156.56Y-112.58
X156.85Y-111.65
X158.36Y-110.41
X159.9Y-112.4
X161.01Y-109.21
X151.64Y-105.87
X151.64Y-107.37
X152.14Y-106.62
X152.64Y-105.87
X152.64Y-107.37
T2
X101.8Y-97.6
X103.0Y-97.6
X103.6Y-105.7
X104.6Y-105.7
X105.5Y-97.6
X106.9Y-97.6
X109.3Y-97.6
X110.5Y-104.94
X114.9Y-122.2
X115.5Y-107.3
X116.2Y-97.0
X116.5Y-107.3
X116.85Y-95.62
X122.11Y-101.42
X124.1Y-89.4
X124.1Y-101.4
X124.12Y-88.37
X125.31Y-88.92
X126.4Y-101.4
X126.5Y-88.36
X126.5Y-89.4
X128.69Y-101.4
X130.6Y-98.0
X130.6Y-99.5
X131.98Y-91.56
X131.98Y-92.83
X132.9Y-99.5
X133.25Y-91.56
X133.25Y-92.83
X135.1Y-98.0
X135.1Y-99.5
X139.4Y-105.2
X139.4Y-109.7
X141.6Y-113.4
X141.6Y-114.3
X143.0Y-116.9
X143.1Y-115.7
X146.6Y-115.6
X146.8Y-116.7
X148.2Y-110.8
X148.25Y-105.5
X148.25Y-106.5
X149.2Y-110.8
X149.2Y-111.9
X149.4Y-103.6
X152.1Y-108.6
X156.7Y-103.7
X156.75Y-105.5
X156.75Y-106.5
T3
X138.443Y-140.895
X138.443Y-143.395
X138.443Y-145.895
X133.4Y-108.8
X133.4Y-111.3
X133.4Y-113.8
X149.093Y-140.895
X149.093Y-143.395
X149.093Y-145.895
X106.53Y-132.77
X106.53Y-135.27
X106.53Y-137.77
X106.53Y-140.27
X106.53Y-142.77
X106.53Y-145.27
X156.65Y-133.475
X156.65Y-135.975
X156.65Y-138.475
X156.675Y-121.7
X156.675Y-124.2
X156.675Y-126.7
X127.843Y-140.895
X127.843Y-143.395
X127.843Y-145.895
X122.693Y-140.895
X122.693Y-143.395
X122.693Y-145.895
X143.693Y-140.895
X143.693Y-143.395
X143.693Y-145.895
X127.8Y-108.8
X127.8Y-111.3
X127.8Y-113.8
X133.068Y-140.895
X133.068Y-143.395
X133.068Y-145.895
T4
X109.15Y-116.775
X109.15Y-119.315
X109.15Y-121.855
X162.863Y-91.385
X162.863Y-93.925
X162.863Y-96.465
X162.863Y-99.005
X162.863Y-101.545
X162.863Y-104.085
X162.863Y-106.625
X162.863Y-109.165
X162.863Y-111.705
X162.863Y-114.245
X162.863Y-116.785
X162.863Y-119.325
X162.863Y-121.865
X162.863Y-124.405
X162.863Y-126.945
X162.863Y-129.485
X162.863Y-132.025
X162.863Y-134.565
X162.863Y-137.105
X162.863Y-139.645
X165.403Y-91.385
X165.403Y-93.925
X165.403Y-96.465
X165.403Y-99.005
X165.403Y-101.545
X165.403Y-104.085
X165.403Y-106.625
X165.403Y-109.165
X165.403Y-111.705
X165.403Y-114.245
X165.403Y-116.785
X165.403Y-119.325
X165.403Y-121.865
X165.403Y-124.405
X165.403Y-126.945
X165.403Y-129.485
X165.403Y-132.025
X165.403Y-134.565
X165.403Y-137.105
X165.403Y-139.645
X143.92Y-94.25
X146.46Y-94.25
X149.0Y-94.25
X151.54Y-94.25
T5
X118.069Y-119.483
X118.069Y-134.723
X120.609Y-119.483
X120.609Y-122.023
X120.609Y-134.723
X123.149Y-119.483
X123.149Y-134.723
X125.689Y-119.483
X125.689Y-134.723
X128.229Y-119.483
X128.229Y-134.723
X130.769Y-119.483
X130.769Y-134.723
X133.309Y-119.483
X133.309Y-134.723
X135.849Y-119.483
X135.849Y-134.723
X138.389Y-119.483
X138.389Y-134.723
X140.929Y-119.483
X140.929Y-134.723
X143.469Y-119.483
X143.469Y-122.023
X143.469Y-124.563
X143.469Y-127.103
X143.469Y-129.643
X143.469Y-132.183
X143.469Y-134.723
X146.009Y-119.483
X146.009Y-122.023
X146.009Y-124.563
X146.009Y-127.103
X146.009Y-129.643
X146.009Y-132.183
X146.009Y-134.723
X148.549Y-119.483
X148.549Y-134.723
X151.089Y-119.483
X151.089Y-122.023
X151.089Y-124.563
X151.089Y-127.103
X151.089Y-129.643
X151.089Y-132.183
X151.089Y-134.723
T6
X97.077Y-98.751
T7
X97.077Y-120.468
X97.077Y-127.668
T0
M30
