G04 #@! TF.GenerationSoftware,KiCad,Pcbnew,(5.1.8)-1*
G04 #@! TF.CreationDate,2021-06-15T20:05:41+00:00*
G04 #@! TF.ProjectId,RPHat_V2,52504861-745f-4563-922e-6b696361645f,rev?*
G04 #@! TF.SameCoordinates,Original*
G04 #@! TF.FileFunction,Legend,Top*
G04 #@! TF.FilePolarity,Positive*
%FSLAX46Y46*%
G04 Gerber Fmt 4.6, Leading zero omitted, Abs format (unit mm)*
G04 Created by KiCad (PCBNEW (5.1.8)-1) date 2021-06-15 20:05:41*
%MOMM*%
%LPD*%
G01*
G04 APERTURE LIST*
%ADD10C,0.120000*%
%ADD11C,0.200000*%
%ADD12C,0.100000*%
%ADD13C,0.150000*%
%ADD14C,0.254000*%
%ADD15C,1.700000*%
%ADD16C,6.000000*%
%ADD17C,2.700000*%
%ADD18O,0.650000X0.400000*%
%ADD19R,0.300000X0.400000*%
%ADD20R,1.650000X2.400000*%
%ADD21R,0.650000X1.000000*%
%ADD22R,1.060000X1.060000*%
%ADD23O,1.950000X1.700000*%
%ADD24R,1.000000X0.200000*%
%ADD25R,1.100000X0.200000*%
%ADD26C,2.600000*%
%ADD27C,1.600000*%
%ADD28O,1.700000X1.700000*%
%ADD29R,1.700000X1.700000*%
%ADD30R,6.200000X2.700000*%
G04 APERTURE END LIST*
D10*
X95527000Y-116218000D02*
X92927000Y-119068000D01*
X101227000Y-119068000D02*
X98677000Y-116218000D01*
X92927000Y-131918000D02*
X101227000Y-131918000D01*
X92927000Y-119068000D02*
X92927000Y-131918000D01*
X98677000Y-116218000D02*
X95527000Y-116218000D01*
X101227000Y-131918000D02*
X101227000Y-119068000D01*
X150490000Y-108270000D02*
X150490000Y-108070000D01*
X153790000Y-108070000D02*
X153790000Y-108270000D01*
X153790000Y-105170000D02*
X153790000Y-104970000D01*
X150490000Y-108270000D02*
X151440000Y-108270000D01*
X152840000Y-104970000D02*
X153790000Y-104970000D01*
X150140000Y-104970000D02*
X151440000Y-104970000D01*
X152840000Y-108270000D02*
X153790000Y-108270000D01*
X155280000Y-105465835D02*
X155280000Y-105234165D01*
X154560000Y-105465835D02*
X154560000Y-105234165D01*
X149730000Y-105465835D02*
X149730000Y-105234165D01*
X149010000Y-105465835D02*
X149010000Y-105234165D01*
D11*
X117223000Y-90717000D02*
X117223000Y-90717000D01*
X117323000Y-90717000D02*
X117323000Y-90717000D01*
X117223000Y-90717000D02*
X117223000Y-90717000D01*
D12*
X118028000Y-101412000D02*
X118028000Y-89222000D01*
X130218000Y-101412000D02*
X118028000Y-101412000D01*
X130218000Y-89222000D02*
X130218000Y-101412000D01*
X118028000Y-89222000D02*
X130218000Y-89222000D01*
D11*
X117323000Y-90717000D02*
G75*
G02*
X117223000Y-90717000I-50000J0D01*
G01*
X117223000Y-90717000D02*
G75*
G02*
X117323000Y-90717000I50000J0D01*
G01*
X117323000Y-90717000D02*
G75*
G02*
X117223000Y-90717000I-50000J0D01*
G01*
D10*
X108240000Y-130160000D02*
X104220000Y-130160000D01*
X104220000Y-130160000D02*
X104220000Y-147880000D01*
X104220000Y-147880000D02*
X108240000Y-147880000D01*
X108240000Y-147880000D02*
X108240000Y-130160000D01*
X106530000Y-130160000D02*
X106530000Y-130660000D01*
X106530000Y-130660000D02*
X107740000Y-130660000D01*
X107740000Y-130660000D02*
X107740000Y-147380000D01*
X107740000Y-147380000D02*
X106530000Y-147380000D01*
X106530000Y-147380000D02*
X106530000Y-147880000D01*
X105720000Y-130160000D02*
X105720000Y-131160000D01*
X105720000Y-131160000D02*
X104220000Y-131160000D01*
X105720000Y-147880000D02*
X105720000Y-146880000D01*
X105720000Y-146880000D02*
X104220000Y-146880000D01*
X106420000Y-129860000D02*
X103920000Y-129860000D01*
X103920000Y-129860000D02*
X103920000Y-132360000D01*
X150803000Y-138285000D02*
X146783000Y-138285000D01*
X146783000Y-138285000D02*
X146783000Y-148505000D01*
X146783000Y-148505000D02*
X150803000Y-148505000D01*
X150803000Y-148505000D02*
X150803000Y-138285000D01*
X149093000Y-138285000D02*
X149093000Y-138785000D01*
X149093000Y-138785000D02*
X150303000Y-138785000D01*
X150303000Y-138785000D02*
X150303000Y-148005000D01*
X150303000Y-148005000D02*
X149093000Y-148005000D01*
X149093000Y-148005000D02*
X149093000Y-148505000D01*
X148283000Y-138285000D02*
X148283000Y-139285000D01*
X148283000Y-139285000D02*
X146783000Y-139285000D01*
X148283000Y-148505000D02*
X148283000Y-147505000D01*
X148283000Y-147505000D02*
X146783000Y-147505000D01*
X148983000Y-137985000D02*
X146483000Y-137985000D01*
X146483000Y-137985000D02*
X146483000Y-140485000D01*
X145403000Y-138285000D02*
X141383000Y-138285000D01*
X141383000Y-138285000D02*
X141383000Y-148505000D01*
X141383000Y-148505000D02*
X145403000Y-148505000D01*
X145403000Y-148505000D02*
X145403000Y-138285000D01*
X143693000Y-138285000D02*
X143693000Y-138785000D01*
X143693000Y-138785000D02*
X144903000Y-138785000D01*
X144903000Y-138785000D02*
X144903000Y-148005000D01*
X144903000Y-148005000D02*
X143693000Y-148005000D01*
X143693000Y-148005000D02*
X143693000Y-148505000D01*
X142883000Y-138285000D02*
X142883000Y-139285000D01*
X142883000Y-139285000D02*
X141383000Y-139285000D01*
X142883000Y-148505000D02*
X142883000Y-147505000D01*
X142883000Y-147505000D02*
X141383000Y-147505000D01*
X143583000Y-137985000D02*
X141083000Y-137985000D01*
X141083000Y-137985000D02*
X141083000Y-140485000D01*
X154965000Y-129310000D02*
X158985000Y-129310000D01*
X158985000Y-129310000D02*
X158985000Y-119090000D01*
X158985000Y-119090000D02*
X154965000Y-119090000D01*
X154965000Y-119090000D02*
X154965000Y-129310000D01*
X156675000Y-129310000D02*
X156675000Y-128810000D01*
X156675000Y-128810000D02*
X155465000Y-128810000D01*
X155465000Y-128810000D02*
X155465000Y-119590000D01*
X155465000Y-119590000D02*
X156675000Y-119590000D01*
X156675000Y-119590000D02*
X156675000Y-119090000D01*
X157485000Y-129310000D02*
X157485000Y-128310000D01*
X157485000Y-128310000D02*
X158985000Y-128310000D01*
X157485000Y-119090000D02*
X157485000Y-120090000D01*
X157485000Y-120090000D02*
X158985000Y-120090000D01*
X156785000Y-129610000D02*
X159285000Y-129610000D01*
X159285000Y-129610000D02*
X159285000Y-127110000D01*
X154940000Y-141085000D02*
X158960000Y-141085000D01*
X158960000Y-141085000D02*
X158960000Y-130865000D01*
X158960000Y-130865000D02*
X154940000Y-130865000D01*
X154940000Y-130865000D02*
X154940000Y-141085000D01*
X156650000Y-141085000D02*
X156650000Y-140585000D01*
X156650000Y-140585000D02*
X155440000Y-140585000D01*
X155440000Y-140585000D02*
X155440000Y-131365000D01*
X155440000Y-131365000D02*
X156650000Y-131365000D01*
X156650000Y-131365000D02*
X156650000Y-130865000D01*
X157460000Y-141085000D02*
X157460000Y-140085000D01*
X157460000Y-140085000D02*
X158960000Y-140085000D01*
X157460000Y-130865000D02*
X157460000Y-131865000D01*
X157460000Y-131865000D02*
X158960000Y-131865000D01*
X156760000Y-141385000D02*
X159260000Y-141385000D01*
X159260000Y-141385000D02*
X159260000Y-138885000D01*
X140153000Y-138285000D02*
X136133000Y-138285000D01*
X136133000Y-138285000D02*
X136133000Y-148505000D01*
X136133000Y-148505000D02*
X140153000Y-148505000D01*
X140153000Y-148505000D02*
X140153000Y-138285000D01*
X138443000Y-138285000D02*
X138443000Y-138785000D01*
X138443000Y-138785000D02*
X139653000Y-138785000D01*
X139653000Y-138785000D02*
X139653000Y-148005000D01*
X139653000Y-148005000D02*
X138443000Y-148005000D01*
X138443000Y-148005000D02*
X138443000Y-148505000D01*
X137633000Y-138285000D02*
X137633000Y-139285000D01*
X137633000Y-139285000D02*
X136133000Y-139285000D01*
X137633000Y-148505000D02*
X137633000Y-147505000D01*
X137633000Y-147505000D02*
X136133000Y-147505000D01*
X138333000Y-137985000D02*
X135833000Y-137985000D01*
X135833000Y-137985000D02*
X135833000Y-140485000D01*
X134778000Y-138285000D02*
X130758000Y-138285000D01*
X130758000Y-138285000D02*
X130758000Y-148505000D01*
X130758000Y-148505000D02*
X134778000Y-148505000D01*
X134778000Y-148505000D02*
X134778000Y-138285000D01*
X133068000Y-138285000D02*
X133068000Y-138785000D01*
X133068000Y-138785000D02*
X134278000Y-138785000D01*
X134278000Y-138785000D02*
X134278000Y-148005000D01*
X134278000Y-148005000D02*
X133068000Y-148005000D01*
X133068000Y-148005000D02*
X133068000Y-148505000D01*
X132258000Y-138285000D02*
X132258000Y-139285000D01*
X132258000Y-139285000D02*
X130758000Y-139285000D01*
X132258000Y-148505000D02*
X132258000Y-147505000D01*
X132258000Y-147505000D02*
X130758000Y-147505000D01*
X132958000Y-137985000D02*
X130458000Y-137985000D01*
X130458000Y-137985000D02*
X130458000Y-140485000D01*
X129553000Y-138285000D02*
X125533000Y-138285000D01*
X125533000Y-138285000D02*
X125533000Y-148505000D01*
X125533000Y-148505000D02*
X129553000Y-148505000D01*
X129553000Y-148505000D02*
X129553000Y-138285000D01*
X127843000Y-138285000D02*
X127843000Y-138785000D01*
X127843000Y-138785000D02*
X129053000Y-138785000D01*
X129053000Y-138785000D02*
X129053000Y-148005000D01*
X129053000Y-148005000D02*
X127843000Y-148005000D01*
X127843000Y-148005000D02*
X127843000Y-148505000D01*
X127033000Y-138285000D02*
X127033000Y-139285000D01*
X127033000Y-139285000D02*
X125533000Y-139285000D01*
X127033000Y-148505000D02*
X127033000Y-147505000D01*
X127033000Y-147505000D02*
X125533000Y-147505000D01*
X127733000Y-137985000D02*
X125233000Y-137985000D01*
X125233000Y-137985000D02*
X125233000Y-140485000D01*
X124403000Y-138285000D02*
X120383000Y-138285000D01*
X120383000Y-138285000D02*
X120383000Y-148505000D01*
X120383000Y-148505000D02*
X124403000Y-148505000D01*
X124403000Y-148505000D02*
X124403000Y-138285000D01*
X122693000Y-138285000D02*
X122693000Y-138785000D01*
X122693000Y-138785000D02*
X123903000Y-138785000D01*
X123903000Y-138785000D02*
X123903000Y-148005000D01*
X123903000Y-148005000D02*
X122693000Y-148005000D01*
X122693000Y-148005000D02*
X122693000Y-148505000D01*
X121883000Y-138285000D02*
X121883000Y-139285000D01*
X121883000Y-139285000D02*
X120383000Y-139285000D01*
X121883000Y-148505000D02*
X121883000Y-147505000D01*
X121883000Y-147505000D02*
X120383000Y-147505000D01*
X122583000Y-137985000D02*
X120083000Y-137985000D01*
X120083000Y-137985000D02*
X120083000Y-140485000D01*
X146893000Y-111684000D02*
X146893000Y-114684000D01*
X143673000Y-113184000D02*
X143673000Y-114684000D01*
X160021000Y-109985121D02*
X160021000Y-109649879D01*
X160781000Y-109985121D02*
X160781000Y-109649879D01*
X158624000Y-109985121D02*
X158624000Y-109649879D01*
X159384000Y-109985121D02*
X159384000Y-109649879D01*
X158277665Y-111674000D02*
X158509335Y-111674000D01*
X158277665Y-112394000D02*
X158509335Y-112394000D01*
X150956835Y-112394000D02*
X150725165Y-112394000D01*
X150956835Y-111674000D02*
X150725165Y-111674000D01*
X150659879Y-112945000D02*
X150995121Y-112945000D01*
X150659879Y-113705000D02*
X150995121Y-113705000D01*
X150635879Y-110195000D02*
X150971121Y-110195000D01*
X150635879Y-110955000D02*
X150971121Y-110955000D01*
X142951165Y-110044000D02*
X143182835Y-110044000D01*
X142951165Y-110764000D02*
X143182835Y-110764000D01*
X140198335Y-108885000D02*
X139966665Y-108885000D01*
X140198335Y-108165000D02*
X139966665Y-108165000D01*
X140134835Y-106827000D02*
X139903165Y-106827000D01*
X140134835Y-106107000D02*
X139903165Y-106107000D01*
X146024000Y-116116165D02*
X146024000Y-116347835D01*
X145304000Y-116116165D02*
X145304000Y-116347835D01*
X144373000Y-116116165D02*
X144373000Y-116347835D01*
X143653000Y-116116165D02*
X143653000Y-116347835D01*
X134251000Y-95715248D02*
X134251000Y-97137752D01*
X131531000Y-95715248D02*
X131531000Y-97137752D01*
D12*
X154213000Y-114253000D02*
X154713000Y-114253000D01*
X154213000Y-110253000D02*
X154813000Y-110253000D01*
X156063000Y-114103000D02*
X156063000Y-114103000D01*
X156063000Y-114003000D02*
X156063000Y-114003000D01*
X156063000Y-114103000D02*
G75*
G03*
X156063000Y-114003000I0J50000D01*
G01*
X156063000Y-114003000D02*
G75*
G03*
X156063000Y-114103000I0J-50000D01*
G01*
D10*
X98677781Y-98751000D02*
G75*
G03*
X98677781Y-98751000I-1600781J0D01*
G01*
D12*
G36*
X130642000Y-127230000D02*
G01*
X130896000Y-126976000D01*
X131150000Y-127357000D01*
X130896000Y-127611000D01*
X130642000Y-127230000D01*
G37*
X130642000Y-127230000D02*
X130896000Y-126976000D01*
X131150000Y-127357000D01*
X130896000Y-127611000D01*
X130642000Y-127230000D01*
G36*
X131023000Y-126849000D02*
G01*
X131277000Y-126595000D01*
X131531000Y-126976000D01*
X131277000Y-127230000D01*
X131023000Y-126849000D01*
G37*
X131023000Y-126849000D02*
X131277000Y-126595000D01*
X131531000Y-126976000D01*
X131277000Y-127230000D01*
X131023000Y-126849000D01*
G36*
X132928000Y-127611000D02*
G01*
X133182000Y-127357000D01*
X133436000Y-127738000D01*
X133182000Y-127992000D01*
X132928000Y-127611000D01*
G37*
X132928000Y-127611000D02*
X133182000Y-127357000D01*
X133436000Y-127738000D01*
X133182000Y-127992000D01*
X132928000Y-127611000D01*
G36*
X132547000Y-127103000D02*
G01*
X132801000Y-126849000D01*
X133055000Y-127230000D01*
X132801000Y-127484000D01*
X132547000Y-127103000D01*
G37*
X132547000Y-127103000D02*
X132801000Y-126849000D01*
X133055000Y-127230000D01*
X132801000Y-127484000D01*
X132547000Y-127103000D01*
G36*
X132166000Y-126595000D02*
G01*
X132420000Y-126341000D01*
X132674000Y-126722000D01*
X132420000Y-126976000D01*
X132166000Y-126595000D01*
G37*
X132166000Y-126595000D02*
X132420000Y-126341000D01*
X132674000Y-126722000D01*
X132420000Y-126976000D01*
X132166000Y-126595000D01*
G36*
X132166000Y-127484000D02*
G01*
X132420000Y-127230000D01*
X132674000Y-127611000D01*
X132420000Y-127865000D01*
X132166000Y-127484000D01*
G37*
X132166000Y-127484000D02*
X132420000Y-127230000D01*
X132674000Y-127611000D01*
X132420000Y-127865000D01*
X132166000Y-127484000D01*
G36*
X131785000Y-126976000D02*
G01*
X132039000Y-126722000D01*
X132293000Y-127103000D01*
X132039000Y-127357000D01*
X131785000Y-126976000D01*
G37*
X131785000Y-126976000D02*
X132039000Y-126722000D01*
X132293000Y-127103000D01*
X132039000Y-127357000D01*
X131785000Y-126976000D01*
G36*
X131404000Y-126468000D02*
G01*
X131658000Y-126214000D01*
X131912000Y-126595000D01*
X131658000Y-126849000D01*
X131404000Y-126468000D01*
G37*
X131404000Y-126468000D02*
X131658000Y-126214000D01*
X131912000Y-126595000D01*
X131658000Y-126849000D01*
X131404000Y-126468000D01*
D13*
X139659000Y-125198000D02*
X139659000Y-122023000D01*
X142199000Y-125198000D02*
X139659000Y-125198000D01*
X142199000Y-122023000D02*
X142199000Y-125198000D01*
X139659000Y-122023000D02*
X142199000Y-122023000D01*
X116799000Y-135993000D02*
X116799000Y-118213000D01*
X152359000Y-135993000D02*
X116799000Y-135993000D01*
X152359000Y-118213000D02*
X152359000Y-135993000D01*
X116799000Y-118213000D02*
X152359000Y-118213000D01*
X139024000Y-132183000D02*
X128864000Y-132183000D01*
X139024000Y-122023000D02*
X128864000Y-122023000D01*
X128864000Y-122023000D02*
X128864000Y-132183000D01*
X139024000Y-132183000D02*
X139024000Y-122023000D01*
X144739000Y-125833000D02*
X149311000Y-125833000D01*
X144739000Y-128373000D02*
X144739000Y-125833000D01*
X149311000Y-128373000D02*
X144739000Y-128373000D01*
X149311000Y-125833000D02*
X149311000Y-128373000D01*
X121879000Y-130913000D02*
X116799000Y-130913000D01*
X121879000Y-123293000D02*
X116799000Y-123293000D01*
X121879000Y-130913000D02*
X121879000Y-123293000D01*
X115529000Y-123293000D02*
X116799000Y-123293000D01*
X115529000Y-130913000D02*
X115529000Y-123293000D01*
X116799000Y-130913000D02*
X115529000Y-130913000D01*
X145013000Y-106034000D02*
X145013000Y-106434000D01*
X145013000Y-109234000D02*
X145013000Y-108834000D01*
X145013000Y-109234000D02*
X144613000Y-109234000D01*
X141813000Y-109234000D02*
X141813000Y-108834000D01*
X141813000Y-109234000D02*
X142213000Y-109234000D01*
X141813000Y-106034000D02*
X141813000Y-106434000D01*
X141813000Y-106034000D02*
X142213000Y-106034000D01*
D10*
X111047000Y-109439000D02*
X114497000Y-109439000D01*
X111047000Y-109439000D02*
X109097000Y-109439000D01*
X111047000Y-104319000D02*
X112997000Y-104319000D01*
X111047000Y-104319000D02*
X109097000Y-104319000D01*
X107820000Y-115445000D02*
X109150000Y-115445000D01*
X107820000Y-116775000D02*
X107820000Y-115445000D01*
X107820000Y-118045000D02*
X110480000Y-118045000D01*
X110480000Y-118045000D02*
X110480000Y-123185000D01*
X107820000Y-118045000D02*
X107820000Y-123185000D01*
X107820000Y-123185000D02*
X110480000Y-123185000D01*
X113726776Y-121427500D02*
X114236224Y-121427500D01*
X113726776Y-120382500D02*
X114236224Y-120382500D01*
X102918276Y-107782500D02*
X103427724Y-107782500D01*
X102918276Y-106737500D02*
X103427724Y-106737500D01*
X102918276Y-109560500D02*
X103427724Y-109560500D01*
X102918276Y-108515500D02*
X103427724Y-108515500D01*
X136666500Y-123054724D02*
X136666500Y-122545276D01*
X135621500Y-123054724D02*
X135621500Y-122545276D01*
X114715500Y-101139776D02*
X114715500Y-101649224D01*
X115760500Y-101139776D02*
X115760500Y-101649224D01*
X138530500Y-123039724D02*
X138530500Y-122530276D01*
X137485500Y-123039724D02*
X137485500Y-122530276D01*
X111655248Y-91225000D02*
X112177752Y-91225000D01*
X111655248Y-89005000D02*
X112177752Y-89005000D01*
X130410000Y-116710000D02*
X130410000Y-114210000D01*
X127910000Y-116710000D02*
X130410000Y-116710000D01*
X128610000Y-107190000D02*
X130110000Y-107190000D01*
X128610000Y-106190000D02*
X128610000Y-107190000D01*
X128610000Y-115410000D02*
X130110000Y-115410000D01*
X128610000Y-116410000D02*
X128610000Y-115410000D01*
X127800000Y-106690000D02*
X127800000Y-106190000D01*
X126590000Y-106690000D02*
X127800000Y-106690000D01*
X126590000Y-115910000D02*
X126590000Y-106690000D01*
X127800000Y-115910000D02*
X126590000Y-115910000D01*
X127800000Y-116410000D02*
X127800000Y-115910000D01*
X126090000Y-106190000D02*
X126090000Y-116410000D01*
X130110000Y-106190000D02*
X126090000Y-106190000D01*
X130110000Y-116410000D02*
X130110000Y-106190000D01*
X126090000Y-116410000D02*
X130110000Y-116410000D01*
X136010000Y-116710000D02*
X136010000Y-114210000D01*
X133510000Y-116710000D02*
X136010000Y-116710000D01*
X134210000Y-107190000D02*
X135710000Y-107190000D01*
X134210000Y-106190000D02*
X134210000Y-107190000D01*
X134210000Y-115410000D02*
X135710000Y-115410000D01*
X134210000Y-116410000D02*
X134210000Y-115410000D01*
X133400000Y-106690000D02*
X133400000Y-106190000D01*
X132190000Y-106690000D02*
X133400000Y-106690000D01*
X132190000Y-115910000D02*
X132190000Y-106690000D01*
X133400000Y-115910000D02*
X132190000Y-115910000D01*
X133400000Y-116410000D02*
X133400000Y-115910000D01*
X131690000Y-106190000D02*
X131690000Y-116410000D01*
X135710000Y-106190000D02*
X131690000Y-106190000D01*
X135710000Y-116410000D02*
X135710000Y-106190000D01*
X131690000Y-116410000D02*
X135710000Y-116410000D01*
X161533000Y-90055000D02*
X162863000Y-90055000D01*
X161533000Y-91385000D02*
X161533000Y-90055000D01*
X164133000Y-90055000D02*
X166733000Y-90055000D01*
X164133000Y-92655000D02*
X164133000Y-90055000D01*
X161533000Y-92655000D02*
X164133000Y-92655000D01*
X166733000Y-90055000D02*
X166733000Y-140975000D01*
X161533000Y-92655000D02*
X161533000Y-140975000D01*
X161533000Y-140975000D02*
X166733000Y-140975000D01*
X113726776Y-119776500D02*
X114236224Y-119776500D01*
X113726776Y-118731500D02*
X114236224Y-118731500D01*
X112937500Y-101163276D02*
X112937500Y-101672724D01*
X113982500Y-101163276D02*
X113982500Y-101672724D01*
X105605267Y-103702000D02*
X105312733Y-103702000D01*
X105605267Y-104722000D02*
X105312733Y-104722000D01*
X106350000Y-108295267D02*
X106350000Y-108002733D01*
X105330000Y-108295267D02*
X105330000Y-108002733D01*
X112481000Y-93848748D02*
X112481000Y-95271252D01*
X115201000Y-93848748D02*
X115201000Y-95271252D01*
X108671000Y-93887248D02*
X108671000Y-95309752D01*
X111391000Y-93887248D02*
X111391000Y-95309752D01*
X104861000Y-93887248D02*
X104861000Y-95309752D01*
X107581000Y-93887248D02*
X107581000Y-95309752D01*
X101051000Y-93887248D02*
X101051000Y-95309752D01*
X103771000Y-93887248D02*
X103771000Y-95309752D01*
D13*
X102305571Y-124853714D02*
X102353190Y-124710857D01*
X102400809Y-124663238D01*
X102496047Y-124615619D01*
X102638904Y-124615619D01*
X102734142Y-124663238D01*
X102781761Y-124710857D01*
X102829380Y-124806095D01*
X102829380Y-125187047D01*
X101829380Y-125187047D01*
X101829380Y-124853714D01*
X101877000Y-124758476D01*
X101924619Y-124710857D01*
X102019857Y-124663238D01*
X102115095Y-124663238D01*
X102210333Y-124710857D01*
X102257952Y-124758476D01*
X102305571Y-124853714D01*
X102305571Y-125187047D01*
X101829380Y-124329904D02*
X101829380Y-123758476D01*
X102829380Y-124044190D02*
X101829380Y-124044190D01*
X102829380Y-122901333D02*
X102829380Y-123472761D01*
X102829380Y-123187047D02*
X101829380Y-123187047D01*
X101972238Y-123282285D01*
X102067476Y-123377523D01*
X102115095Y-123472761D01*
X151378095Y-103572380D02*
X151378095Y-104381904D01*
X151425714Y-104477142D01*
X151473333Y-104524761D01*
X151568571Y-104572380D01*
X151759047Y-104572380D01*
X151854285Y-104524761D01*
X151901904Y-104477142D01*
X151949523Y-104381904D01*
X151949523Y-103572380D01*
X152330476Y-103572380D02*
X152997142Y-103572380D01*
X152568571Y-104572380D01*
X154257142Y-103757142D02*
X154209523Y-103804761D01*
X154066666Y-103852380D01*
X153971428Y-103852380D01*
X153828571Y-103804761D01*
X153733333Y-103709523D01*
X153685714Y-103614285D01*
X153638095Y-103423809D01*
X153638095Y-103280952D01*
X153685714Y-103090476D01*
X153733333Y-102995238D01*
X153828571Y-102900000D01*
X153971428Y-102852380D01*
X154066666Y-102852380D01*
X154209523Y-102900000D01*
X154257142Y-102947619D01*
X155209523Y-103852380D02*
X154638095Y-103852380D01*
X154923809Y-103852380D02*
X154923809Y-102852380D01*
X154828571Y-102995238D01*
X154733333Y-103090476D01*
X154638095Y-103138095D01*
X155542857Y-102852380D02*
X156209523Y-102852380D01*
X155780952Y-103852380D01*
X146757142Y-104557142D02*
X146709523Y-104604761D01*
X146566666Y-104652380D01*
X146471428Y-104652380D01*
X146328571Y-104604761D01*
X146233333Y-104509523D01*
X146185714Y-104414285D01*
X146138095Y-104223809D01*
X146138095Y-104080952D01*
X146185714Y-103890476D01*
X146233333Y-103795238D01*
X146328571Y-103700000D01*
X146471428Y-103652380D01*
X146566666Y-103652380D01*
X146709523Y-103700000D01*
X146757142Y-103747619D01*
X147709523Y-104652380D02*
X147138095Y-104652380D01*
X147423809Y-104652380D02*
X147423809Y-103652380D01*
X147328571Y-103795238D01*
X147233333Y-103890476D01*
X147138095Y-103938095D01*
X148566666Y-103652380D02*
X148376190Y-103652380D01*
X148280952Y-103700000D01*
X148233333Y-103747619D01*
X148138095Y-103890476D01*
X148090476Y-104080952D01*
X148090476Y-104461904D01*
X148138095Y-104557142D01*
X148185714Y-104604761D01*
X148280952Y-104652380D01*
X148471428Y-104652380D01*
X148566666Y-104604761D01*
X148614285Y-104557142D01*
X148661904Y-104461904D01*
X148661904Y-104223809D01*
X148614285Y-104128571D01*
X148566666Y-104080952D01*
X148471428Y-104033333D01*
X148280952Y-104033333D01*
X148185714Y-104080952D01*
X148138095Y-104128571D01*
X148090476Y-104223809D01*
D14*
X130757857Y-89774523D02*
X130757857Y-88504523D01*
X131241666Y-88504523D01*
X131362619Y-88565000D01*
X131423095Y-88625476D01*
X131483571Y-88746428D01*
X131483571Y-88927857D01*
X131423095Y-89048809D01*
X131362619Y-89109285D01*
X131241666Y-89169761D01*
X130757857Y-89169761D01*
X131967380Y-89714047D02*
X132148809Y-89774523D01*
X132451190Y-89774523D01*
X132572142Y-89714047D01*
X132632619Y-89653571D01*
X132693095Y-89532619D01*
X132693095Y-89411666D01*
X132632619Y-89290714D01*
X132572142Y-89230238D01*
X132451190Y-89169761D01*
X132209285Y-89109285D01*
X132088333Y-89048809D01*
X132027857Y-88988333D01*
X131967380Y-88867380D01*
X131967380Y-88746428D01*
X132027857Y-88625476D01*
X132088333Y-88565000D01*
X132209285Y-88504523D01*
X132511666Y-88504523D01*
X132693095Y-88565000D01*
X133902619Y-89774523D02*
X133176904Y-89774523D01*
X133539761Y-89774523D02*
X133539761Y-88504523D01*
X133418809Y-88685952D01*
X133297857Y-88806904D01*
X133176904Y-88867380D01*
D13*
X102657380Y-139487523D02*
X103371666Y-139487523D01*
X103514523Y-139535142D01*
X103609761Y-139630380D01*
X103657380Y-139773238D01*
X103657380Y-139868476D01*
X103657380Y-138487523D02*
X103657380Y-139058952D01*
X103657380Y-138773238D02*
X102657380Y-138773238D01*
X102800238Y-138868476D01*
X102895476Y-138963714D01*
X102943095Y-139058952D01*
X102657380Y-137630380D02*
X102657380Y-137820857D01*
X102705000Y-137916095D01*
X102752619Y-137963714D01*
X102895476Y-138058952D01*
X103085952Y-138106571D01*
X103466904Y-138106571D01*
X103562142Y-138058952D01*
X103609761Y-138011333D01*
X103657380Y-137916095D01*
X103657380Y-137725619D01*
X103609761Y-137630380D01*
X103562142Y-137582761D01*
X103466904Y-137535142D01*
X103228809Y-137535142D01*
X103133571Y-137582761D01*
X103085952Y-137630380D01*
X103038333Y-137725619D01*
X103038333Y-137916095D01*
X103085952Y-138011333D01*
X103133571Y-138058952D01*
X103228809Y-138106571D01*
X144338095Y-112652380D02*
X144338095Y-113461904D01*
X144385714Y-113557142D01*
X144433333Y-113604761D01*
X144528571Y-113652380D01*
X144719047Y-113652380D01*
X144814285Y-113604761D01*
X144861904Y-113557142D01*
X144909523Y-113461904D01*
X144909523Y-112652380D01*
X145909523Y-113652380D02*
X145338095Y-113652380D01*
X145623809Y-113652380D02*
X145623809Y-112652380D01*
X145528571Y-112795238D01*
X145433333Y-112890476D01*
X145338095Y-112938095D01*
X160952380Y-107842857D02*
X160476190Y-108176190D01*
X160952380Y-108414285D02*
X159952380Y-108414285D01*
X159952380Y-108033333D01*
X160000000Y-107938095D01*
X160047619Y-107890476D01*
X160142857Y-107842857D01*
X160285714Y-107842857D01*
X160380952Y-107890476D01*
X160428571Y-107938095D01*
X160476190Y-108033333D01*
X160476190Y-108414285D01*
X160952380Y-106890476D02*
X160952380Y-107461904D01*
X160952380Y-107176190D02*
X159952380Y-107176190D01*
X160095238Y-107271428D01*
X160190476Y-107366666D01*
X160238095Y-107461904D01*
X160047619Y-106509523D02*
X160000000Y-106461904D01*
X159952380Y-106366666D01*
X159952380Y-106128571D01*
X160000000Y-106033333D01*
X160047619Y-105985714D01*
X160142857Y-105938095D01*
X160238095Y-105938095D01*
X160380952Y-105985714D01*
X160952380Y-106557142D01*
X160952380Y-105938095D01*
X159452380Y-107842857D02*
X158976190Y-108176190D01*
X159452380Y-108414285D02*
X158452380Y-108414285D01*
X158452380Y-108033333D01*
X158500000Y-107938095D01*
X158547619Y-107890476D01*
X158642857Y-107842857D01*
X158785714Y-107842857D01*
X158880952Y-107890476D01*
X158928571Y-107938095D01*
X158976190Y-108033333D01*
X158976190Y-108414285D01*
X159452380Y-106890476D02*
X159452380Y-107461904D01*
X159452380Y-107176190D02*
X158452380Y-107176190D01*
X158595238Y-107271428D01*
X158690476Y-107366666D01*
X158738095Y-107461904D01*
X159452380Y-105938095D02*
X159452380Y-106509523D01*
X159452380Y-106223809D02*
X158452380Y-106223809D01*
X158595238Y-106319047D01*
X158690476Y-106414285D01*
X158738095Y-106509523D01*
X158072142Y-113788142D02*
X158024523Y-113835761D01*
X157881666Y-113883380D01*
X157786428Y-113883380D01*
X157643571Y-113835761D01*
X157548333Y-113740523D01*
X157500714Y-113645285D01*
X157453095Y-113454809D01*
X157453095Y-113311952D01*
X157500714Y-113121476D01*
X157548333Y-113026238D01*
X157643571Y-112931000D01*
X157786428Y-112883380D01*
X157881666Y-112883380D01*
X158024523Y-112931000D01*
X158072142Y-112978619D01*
X159024523Y-113883380D02*
X158453095Y-113883380D01*
X158738809Y-113883380D02*
X158738809Y-112883380D01*
X158643571Y-113026238D01*
X158548333Y-113121476D01*
X158453095Y-113169095D01*
X159929285Y-112883380D02*
X159453095Y-112883380D01*
X159405476Y-113359571D01*
X159453095Y-113311952D01*
X159548333Y-113264333D01*
X159786428Y-113264333D01*
X159881666Y-113311952D01*
X159929285Y-113359571D01*
X159976904Y-113454809D01*
X159976904Y-113692904D01*
X159929285Y-113788142D01*
X159881666Y-113835761D01*
X159786428Y-113883380D01*
X159548333Y-113883380D01*
X159453095Y-113835761D01*
X159405476Y-113788142D01*
X148557142Y-113242857D02*
X148604761Y-113290476D01*
X148652380Y-113433333D01*
X148652380Y-113528571D01*
X148604761Y-113671428D01*
X148509523Y-113766666D01*
X148414285Y-113814285D01*
X148223809Y-113861904D01*
X148080952Y-113861904D01*
X147890476Y-113814285D01*
X147795238Y-113766666D01*
X147700000Y-113671428D01*
X147652380Y-113528571D01*
X147652380Y-113433333D01*
X147700000Y-113290476D01*
X147747619Y-113242857D01*
X148652380Y-112290476D02*
X148652380Y-112861904D01*
X148652380Y-112576190D02*
X147652380Y-112576190D01*
X147795238Y-112671428D01*
X147890476Y-112766666D01*
X147938095Y-112861904D01*
X147985714Y-111433333D02*
X148652380Y-111433333D01*
X147604761Y-111671428D02*
X148319047Y-111909523D01*
X148319047Y-111290476D01*
X150633333Y-115052380D02*
X150300000Y-114576190D01*
X150061904Y-115052380D02*
X150061904Y-114052380D01*
X150442857Y-114052380D01*
X150538095Y-114100000D01*
X150585714Y-114147619D01*
X150633333Y-114242857D01*
X150633333Y-114385714D01*
X150585714Y-114480952D01*
X150538095Y-114528571D01*
X150442857Y-114576190D01*
X150061904Y-114576190D01*
X151204761Y-114480952D02*
X151109523Y-114433333D01*
X151061904Y-114385714D01*
X151014285Y-114290476D01*
X151014285Y-114242857D01*
X151061904Y-114147619D01*
X151109523Y-114100000D01*
X151204761Y-114052380D01*
X151395238Y-114052380D01*
X151490476Y-114100000D01*
X151538095Y-114147619D01*
X151585714Y-114242857D01*
X151585714Y-114290476D01*
X151538095Y-114385714D01*
X151490476Y-114433333D01*
X151395238Y-114480952D01*
X151204761Y-114480952D01*
X151109523Y-114528571D01*
X151061904Y-114576190D01*
X151014285Y-114671428D01*
X151014285Y-114861904D01*
X151061904Y-114957142D01*
X151109523Y-115004761D01*
X151204761Y-115052380D01*
X151395238Y-115052380D01*
X151490476Y-115004761D01*
X151538095Y-114957142D01*
X151585714Y-114861904D01*
X151585714Y-114671428D01*
X151538095Y-114576190D01*
X151490476Y-114528571D01*
X151395238Y-114480952D01*
X150533333Y-109752380D02*
X150200000Y-109276190D01*
X149961904Y-109752380D02*
X149961904Y-108752380D01*
X150342857Y-108752380D01*
X150438095Y-108800000D01*
X150485714Y-108847619D01*
X150533333Y-108942857D01*
X150533333Y-109085714D01*
X150485714Y-109180952D01*
X150438095Y-109228571D01*
X150342857Y-109276190D01*
X149961904Y-109276190D01*
X150866666Y-108752380D02*
X151533333Y-108752380D01*
X151104761Y-109752380D01*
X141457142Y-112157142D02*
X141409523Y-112204761D01*
X141266666Y-112252380D01*
X141171428Y-112252380D01*
X141028571Y-112204761D01*
X140933333Y-112109523D01*
X140885714Y-112014285D01*
X140838095Y-111823809D01*
X140838095Y-111680952D01*
X140885714Y-111490476D01*
X140933333Y-111395238D01*
X141028571Y-111300000D01*
X141171428Y-111252380D01*
X141266666Y-111252380D01*
X141409523Y-111300000D01*
X141457142Y-111347619D01*
X142409523Y-112252380D02*
X141838095Y-112252380D01*
X142123809Y-112252380D02*
X142123809Y-111252380D01*
X142028571Y-111395238D01*
X141933333Y-111490476D01*
X141838095Y-111538095D01*
X142790476Y-111347619D02*
X142838095Y-111300000D01*
X142933333Y-111252380D01*
X143171428Y-111252380D01*
X143266666Y-111300000D01*
X143314285Y-111347619D01*
X143361904Y-111442857D01*
X143361904Y-111538095D01*
X143314285Y-111680952D01*
X142742857Y-112252380D01*
X143361904Y-112252380D01*
X138280642Y-109675857D02*
X138328261Y-109723476D01*
X138375880Y-109866333D01*
X138375880Y-109961571D01*
X138328261Y-110104428D01*
X138233023Y-110199666D01*
X138137785Y-110247285D01*
X137947309Y-110294904D01*
X137804452Y-110294904D01*
X137613976Y-110247285D01*
X137518738Y-110199666D01*
X137423500Y-110104428D01*
X137375880Y-109961571D01*
X137375880Y-109866333D01*
X137423500Y-109723476D01*
X137471119Y-109675857D01*
X138375880Y-108723476D02*
X138375880Y-109294904D01*
X138375880Y-109009190D02*
X137375880Y-109009190D01*
X137518738Y-109104428D01*
X137613976Y-109199666D01*
X137661595Y-109294904D01*
X138375880Y-107771095D02*
X138375880Y-108342523D01*
X138375880Y-108056809D02*
X137375880Y-108056809D01*
X137518738Y-108152047D01*
X137613976Y-108247285D01*
X137661595Y-108342523D01*
X138217142Y-106220857D02*
X138264761Y-106268476D01*
X138312380Y-106411333D01*
X138312380Y-106506571D01*
X138264761Y-106649428D01*
X138169523Y-106744666D01*
X138074285Y-106792285D01*
X137883809Y-106839904D01*
X137740952Y-106839904D01*
X137550476Y-106792285D01*
X137455238Y-106744666D01*
X137360000Y-106649428D01*
X137312380Y-106506571D01*
X137312380Y-106411333D01*
X137360000Y-106268476D01*
X137407619Y-106220857D01*
X138312380Y-105268476D02*
X138312380Y-105839904D01*
X138312380Y-105554190D02*
X137312380Y-105554190D01*
X137455238Y-105649428D01*
X137550476Y-105744666D01*
X137598095Y-105839904D01*
X137312380Y-104649428D02*
X137312380Y-104554190D01*
X137360000Y-104458952D01*
X137407619Y-104411333D01*
X137502857Y-104363714D01*
X137693333Y-104316095D01*
X137931428Y-104316095D01*
X138121904Y-104363714D01*
X138217142Y-104411333D01*
X138264761Y-104458952D01*
X138312380Y-104554190D01*
X138312380Y-104649428D01*
X138264761Y-104744666D01*
X138217142Y-104792285D01*
X138121904Y-104839904D01*
X137931428Y-104887523D01*
X137693333Y-104887523D01*
X137502857Y-104839904D01*
X137407619Y-104792285D01*
X137360000Y-104744666D01*
X137312380Y-104649428D01*
X147933333Y-116457142D02*
X147885714Y-116504761D01*
X147742857Y-116552380D01*
X147647619Y-116552380D01*
X147504761Y-116504761D01*
X147409523Y-116409523D01*
X147361904Y-116314285D01*
X147314285Y-116123809D01*
X147314285Y-115980952D01*
X147361904Y-115790476D01*
X147409523Y-115695238D01*
X147504761Y-115600000D01*
X147647619Y-115552380D01*
X147742857Y-115552380D01*
X147885714Y-115600000D01*
X147933333Y-115647619D01*
X148266666Y-115552380D02*
X148933333Y-115552380D01*
X148504761Y-116552380D01*
X141433333Y-116657142D02*
X141385714Y-116704761D01*
X141242857Y-116752380D01*
X141147619Y-116752380D01*
X141004761Y-116704761D01*
X140909523Y-116609523D01*
X140861904Y-116514285D01*
X140814285Y-116323809D01*
X140814285Y-116180952D01*
X140861904Y-115990476D01*
X140909523Y-115895238D01*
X141004761Y-115800000D01*
X141147619Y-115752380D01*
X141242857Y-115752380D01*
X141385714Y-115800000D01*
X141433333Y-115847619D01*
X142290476Y-115752380D02*
X142100000Y-115752380D01*
X142004761Y-115800000D01*
X141957142Y-115847619D01*
X141861904Y-115990476D01*
X141814285Y-116180952D01*
X141814285Y-116561904D01*
X141861904Y-116657142D01*
X141909523Y-116704761D01*
X142004761Y-116752380D01*
X142195238Y-116752380D01*
X142290476Y-116704761D01*
X142338095Y-116657142D01*
X142385714Y-116561904D01*
X142385714Y-116323809D01*
X142338095Y-116228571D01*
X142290476Y-116180952D01*
X142195238Y-116133333D01*
X142004761Y-116133333D01*
X141909523Y-116180952D01*
X141861904Y-116228571D01*
X141814285Y-116323809D01*
X135433333Y-96957142D02*
X135385714Y-97004761D01*
X135242857Y-97052380D01*
X135147619Y-97052380D01*
X135004761Y-97004761D01*
X134909523Y-96909523D01*
X134861904Y-96814285D01*
X134814285Y-96623809D01*
X134814285Y-96480952D01*
X134861904Y-96290476D01*
X134909523Y-96195238D01*
X135004761Y-96100000D01*
X135147619Y-96052380D01*
X135242857Y-96052380D01*
X135385714Y-96100000D01*
X135433333Y-96147619D01*
X136338095Y-96052380D02*
X135861904Y-96052380D01*
X135814285Y-96528571D01*
X135861904Y-96480952D01*
X135957142Y-96433333D01*
X136195238Y-96433333D01*
X136290476Y-96480952D01*
X136338095Y-96528571D01*
X136385714Y-96623809D01*
X136385714Y-96861904D01*
X136338095Y-96957142D01*
X136290476Y-97004761D01*
X136195238Y-97052380D01*
X135957142Y-97052380D01*
X135861904Y-97004761D01*
X135814285Y-96957142D01*
D14*
X153160238Y-115974523D02*
X153160238Y-114704523D01*
X154490714Y-115853571D02*
X154430238Y-115914047D01*
X154248809Y-115974523D01*
X154127857Y-115974523D01*
X153946428Y-115914047D01*
X153825476Y-115793095D01*
X153765000Y-115672142D01*
X153704523Y-115430238D01*
X153704523Y-115248809D01*
X153765000Y-115006904D01*
X153825476Y-114885952D01*
X153946428Y-114765000D01*
X154127857Y-114704523D01*
X154248809Y-114704523D01*
X154430238Y-114765000D01*
X154490714Y-114825476D01*
X155700238Y-115974523D02*
X154974523Y-115974523D01*
X155337380Y-115974523D02*
X155337380Y-114704523D01*
X155216428Y-114885952D01*
X155095476Y-115006904D01*
X154974523Y-115067380D01*
D13*
X136673666Y-128503000D02*
X135973666Y-128503000D01*
X135973666Y-128336333D01*
X136007000Y-128236333D01*
X136073666Y-128169666D01*
X136140333Y-128136333D01*
X136273666Y-128103000D01*
X136373666Y-128103000D01*
X136507000Y-128136333D01*
X136573666Y-128169666D01*
X136640333Y-128236333D01*
X136673666Y-128336333D01*
X136673666Y-128503000D01*
X135973666Y-127903000D02*
X136673666Y-127669666D01*
X135973666Y-127436333D01*
X136673666Y-126869666D02*
X136673666Y-127203000D01*
X135973666Y-127203000D01*
X135973666Y-126336333D02*
X135973666Y-126469666D01*
X136007000Y-126536333D01*
X136040333Y-126569666D01*
X136140333Y-126636333D01*
X136273666Y-126669666D01*
X136540333Y-126669666D01*
X136607000Y-126636333D01*
X136640333Y-126603000D01*
X136673666Y-126536333D01*
X136673666Y-126403000D01*
X136640333Y-126336333D01*
X136607000Y-126303000D01*
X136540333Y-126269666D01*
X136373666Y-126269666D01*
X136307000Y-126303000D01*
X136273666Y-126336333D01*
X136240333Y-126403000D01*
X136240333Y-126536333D01*
X136273666Y-126603000D01*
X136307000Y-126636333D01*
X136373666Y-126669666D01*
X136473666Y-126003000D02*
X136473666Y-125669666D01*
X136673666Y-126069666D02*
X135973666Y-125836333D01*
X136673666Y-125603000D01*
X135149666Y-130186333D02*
X134449666Y-130186333D01*
X134949666Y-129953000D01*
X134449666Y-129719666D01*
X135149666Y-129719666D01*
X135149666Y-129386333D02*
X134449666Y-129386333D01*
X135149666Y-129053000D02*
X134449666Y-129053000D01*
X134949666Y-128819666D01*
X134449666Y-128586333D01*
X135149666Y-128586333D01*
X134449666Y-128319666D02*
X135149666Y-127853000D01*
X134449666Y-127853000D02*
X135149666Y-128319666D01*
X135149666Y-127186333D02*
X134816333Y-127419666D01*
X135149666Y-127586333D02*
X134449666Y-127586333D01*
X134449666Y-127319666D01*
X134483000Y-127253000D01*
X134516333Y-127219666D01*
X134583000Y-127186333D01*
X134683000Y-127186333D01*
X134749666Y-127219666D01*
X134783000Y-127253000D01*
X134816333Y-127319666D01*
X134816333Y-127586333D01*
X134449666Y-126986333D02*
X134449666Y-126586333D01*
X135149666Y-126786333D02*
X134449666Y-126786333D01*
X135149666Y-125986333D02*
X135149666Y-126386333D01*
X135149666Y-126186333D02*
X134449666Y-126186333D01*
X134549666Y-126253000D01*
X134616333Y-126319666D01*
X134649666Y-126386333D01*
X134449666Y-125553000D02*
X134449666Y-125486333D01*
X134483000Y-125419666D01*
X134516333Y-125386333D01*
X134583000Y-125353000D01*
X134716333Y-125319666D01*
X134883000Y-125319666D01*
X135016333Y-125353000D01*
X135083000Y-125386333D01*
X135116333Y-125419666D01*
X135149666Y-125486333D01*
X135149666Y-125553000D01*
X135116333Y-125619666D01*
X135083000Y-125653000D01*
X135016333Y-125686333D01*
X134883000Y-125719666D01*
X134716333Y-125719666D01*
X134583000Y-125686333D01*
X134516333Y-125653000D01*
X134483000Y-125619666D01*
X134449666Y-125553000D01*
X134449666Y-124719666D02*
X134449666Y-124853000D01*
X134483000Y-124919666D01*
X134516333Y-124953000D01*
X134616333Y-125019666D01*
X134749666Y-125053000D01*
X135016333Y-125053000D01*
X135083000Y-125019666D01*
X135116333Y-124986333D01*
X135149666Y-124919666D01*
X135149666Y-124786333D01*
X135116333Y-124719666D01*
X135083000Y-124686333D01*
X135016333Y-124653000D01*
X134849666Y-124653000D01*
X134783000Y-124686333D01*
X134749666Y-124719666D01*
X134716333Y-124786333D01*
X134716333Y-124919666D01*
X134749666Y-124986333D01*
X134783000Y-125019666D01*
X134849666Y-125053000D01*
X134516333Y-124386333D02*
X134483000Y-124353000D01*
X134449666Y-124286333D01*
X134449666Y-124119666D01*
X134483000Y-124053000D01*
X134516333Y-124019666D01*
X134583000Y-123986333D01*
X134649666Y-123986333D01*
X134749666Y-124019666D01*
X135149666Y-124419666D01*
X135149666Y-123986333D01*
X141638095Y-104452380D02*
X141638095Y-105261904D01*
X141685714Y-105357142D01*
X141733333Y-105404761D01*
X141828571Y-105452380D01*
X142019047Y-105452380D01*
X142114285Y-105404761D01*
X142161904Y-105357142D01*
X142209523Y-105261904D01*
X142209523Y-104452380D01*
X142590476Y-104452380D02*
X143209523Y-104452380D01*
X142876190Y-104833333D01*
X143019047Y-104833333D01*
X143114285Y-104880952D01*
X143161904Y-104928571D01*
X143209523Y-105023809D01*
X143209523Y-105261904D01*
X143161904Y-105357142D01*
X143114285Y-105404761D01*
X143019047Y-105452380D01*
X142733333Y-105452380D01*
X142638095Y-105404761D01*
X142590476Y-105357142D01*
X110285095Y-109731380D02*
X110285095Y-110540904D01*
X110332714Y-110636142D01*
X110380333Y-110683761D01*
X110475571Y-110731380D01*
X110666047Y-110731380D01*
X110761285Y-110683761D01*
X110808904Y-110636142D01*
X110856523Y-110540904D01*
X110856523Y-109731380D01*
X111285095Y-109826619D02*
X111332714Y-109779000D01*
X111427952Y-109731380D01*
X111666047Y-109731380D01*
X111761285Y-109779000D01*
X111808904Y-109826619D01*
X111856523Y-109921857D01*
X111856523Y-110017095D01*
X111808904Y-110159952D01*
X111237476Y-110731380D01*
X111856523Y-110731380D01*
X112257142Y-122852380D02*
X111923809Y-122376190D01*
X111685714Y-122852380D02*
X111685714Y-121852380D01*
X112066666Y-121852380D01*
X112161904Y-121900000D01*
X112209523Y-121947619D01*
X112257142Y-122042857D01*
X112257142Y-122185714D01*
X112209523Y-122280952D01*
X112161904Y-122328571D01*
X112066666Y-122376190D01*
X111685714Y-122376190D01*
X113209523Y-122852380D02*
X112638095Y-122852380D01*
X112923809Y-122852380D02*
X112923809Y-121852380D01*
X112828571Y-121995238D01*
X112733333Y-122090476D01*
X112638095Y-122138095D01*
X113828571Y-121852380D02*
X113923809Y-121852380D01*
X114019047Y-121900000D01*
X114066666Y-121947619D01*
X114114285Y-122042857D01*
X114161904Y-122233333D01*
X114161904Y-122471428D01*
X114114285Y-122661904D01*
X114066666Y-122757142D01*
X114019047Y-122804761D01*
X113923809Y-122852380D01*
X113828571Y-122852380D01*
X113733333Y-122804761D01*
X113685714Y-122757142D01*
X113638095Y-122661904D01*
X113590476Y-122471428D01*
X113590476Y-122233333D01*
X113638095Y-122042857D01*
X113685714Y-121947619D01*
X113733333Y-121900000D01*
X113828571Y-121852380D01*
X102133333Y-106252380D02*
X101800000Y-105776190D01*
X101561904Y-106252380D02*
X101561904Y-105252380D01*
X101942857Y-105252380D01*
X102038095Y-105300000D01*
X102085714Y-105347619D01*
X102133333Y-105442857D01*
X102133333Y-105585714D01*
X102085714Y-105680952D01*
X102038095Y-105728571D01*
X101942857Y-105776190D01*
X101561904Y-105776190D01*
X102990476Y-105252380D02*
X102800000Y-105252380D01*
X102704761Y-105300000D01*
X102657142Y-105347619D01*
X102561904Y-105490476D01*
X102514285Y-105680952D01*
X102514285Y-106061904D01*
X102561904Y-106157142D01*
X102609523Y-106204761D01*
X102704761Y-106252380D01*
X102895238Y-106252380D01*
X102990476Y-106204761D01*
X103038095Y-106157142D01*
X103085714Y-106061904D01*
X103085714Y-105823809D01*
X103038095Y-105728571D01*
X102990476Y-105680952D01*
X102895238Y-105633333D01*
X102704761Y-105633333D01*
X102609523Y-105680952D01*
X102561904Y-105728571D01*
X102514285Y-105823809D01*
X103033333Y-110952380D02*
X102700000Y-110476190D01*
X102461904Y-110952380D02*
X102461904Y-109952380D01*
X102842857Y-109952380D01*
X102938095Y-110000000D01*
X102985714Y-110047619D01*
X103033333Y-110142857D01*
X103033333Y-110285714D01*
X102985714Y-110380952D01*
X102938095Y-110428571D01*
X102842857Y-110476190D01*
X102461904Y-110476190D01*
X103938095Y-109952380D02*
X103461904Y-109952380D01*
X103414285Y-110428571D01*
X103461904Y-110380952D01*
X103557142Y-110333333D01*
X103795238Y-110333333D01*
X103890476Y-110380952D01*
X103938095Y-110428571D01*
X103985714Y-110523809D01*
X103985714Y-110761904D01*
X103938095Y-110857142D01*
X103890476Y-110904761D01*
X103795238Y-110952380D01*
X103557142Y-110952380D01*
X103461904Y-110904761D01*
X103414285Y-110857142D01*
X135977333Y-125768880D02*
X135644000Y-125292690D01*
X135405904Y-125768880D02*
X135405904Y-124768880D01*
X135786857Y-124768880D01*
X135882095Y-124816500D01*
X135929714Y-124864119D01*
X135977333Y-124959357D01*
X135977333Y-125102214D01*
X135929714Y-125197452D01*
X135882095Y-125245071D01*
X135786857Y-125292690D01*
X135405904Y-125292690D01*
X136310666Y-124768880D02*
X136929714Y-124768880D01*
X136596380Y-125149833D01*
X136739238Y-125149833D01*
X136834476Y-125197452D01*
X136882095Y-125245071D01*
X136929714Y-125340309D01*
X136929714Y-125578404D01*
X136882095Y-125673642D01*
X136834476Y-125721261D01*
X136739238Y-125768880D01*
X136453523Y-125768880D01*
X136358285Y-125721261D01*
X136310666Y-125673642D01*
X116733333Y-101952380D02*
X116400000Y-101476190D01*
X116161904Y-101952380D02*
X116161904Y-100952380D01*
X116542857Y-100952380D01*
X116638095Y-101000000D01*
X116685714Y-101047619D01*
X116733333Y-101142857D01*
X116733333Y-101285714D01*
X116685714Y-101380952D01*
X116638095Y-101428571D01*
X116542857Y-101476190D01*
X116161904Y-101476190D01*
X117114285Y-101047619D02*
X117161904Y-101000000D01*
X117257142Y-100952380D01*
X117495238Y-100952380D01*
X117590476Y-101000000D01*
X117638095Y-101047619D01*
X117685714Y-101142857D01*
X117685714Y-101238095D01*
X117638095Y-101380952D01*
X117066666Y-101952380D01*
X117685714Y-101952380D01*
X138222333Y-125777380D02*
X137889000Y-125301190D01*
X137650904Y-125777380D02*
X137650904Y-124777380D01*
X138031857Y-124777380D01*
X138127095Y-124825000D01*
X138174714Y-124872619D01*
X138222333Y-124967857D01*
X138222333Y-125110714D01*
X138174714Y-125205952D01*
X138127095Y-125253571D01*
X138031857Y-125301190D01*
X137650904Y-125301190D01*
X139174714Y-125777380D02*
X138603285Y-125777380D01*
X138889000Y-125777380D02*
X138889000Y-124777380D01*
X138793761Y-124920238D01*
X138698523Y-125015476D01*
X138603285Y-125063095D01*
X111749833Y-88517380D02*
X111273642Y-88517380D01*
X111273642Y-87517380D01*
X112606976Y-88517380D02*
X112035547Y-88517380D01*
X112321261Y-88517380D02*
X112321261Y-87517380D01*
X112226023Y-87660238D01*
X112130785Y-87755476D01*
X112035547Y-87803095D01*
X113243404Y-118276380D02*
X113243404Y-117276380D01*
X113481500Y-117276380D01*
X113624357Y-117324000D01*
X113719595Y-117419238D01*
X113767214Y-117514476D01*
X113814833Y-117704952D01*
X113814833Y-117847809D01*
X113767214Y-118038285D01*
X113719595Y-118133523D01*
X113624357Y-118228761D01*
X113481500Y-118276380D01*
X113243404Y-118276380D01*
X114195785Y-117371619D02*
X114243404Y-117324000D01*
X114338642Y-117276380D01*
X114576738Y-117276380D01*
X114671976Y-117324000D01*
X114719595Y-117371619D01*
X114767214Y-117466857D01*
X114767214Y-117562095D01*
X114719595Y-117704952D01*
X114148166Y-118276380D01*
X114767214Y-118276380D01*
X111161904Y-101952380D02*
X111161904Y-100952380D01*
X111400000Y-100952380D01*
X111542857Y-101000000D01*
X111638095Y-101095238D01*
X111685714Y-101190476D01*
X111733333Y-101380952D01*
X111733333Y-101523809D01*
X111685714Y-101714285D01*
X111638095Y-101809523D01*
X111542857Y-101904761D01*
X111400000Y-101952380D01*
X111161904Y-101952380D01*
X112685714Y-101952380D02*
X112114285Y-101952380D01*
X112400000Y-101952380D02*
X112400000Y-100952380D01*
X112304761Y-101095238D01*
X112209523Y-101190476D01*
X112114285Y-101238095D01*
X105292333Y-103172142D02*
X105244714Y-103219761D01*
X105101857Y-103267380D01*
X105006619Y-103267380D01*
X104863761Y-103219761D01*
X104768523Y-103124523D01*
X104720904Y-103029285D01*
X104673285Y-102838809D01*
X104673285Y-102695952D01*
X104720904Y-102505476D01*
X104768523Y-102410238D01*
X104863761Y-102315000D01*
X105006619Y-102267380D01*
X105101857Y-102267380D01*
X105244714Y-102315000D01*
X105292333Y-102362619D01*
X105768523Y-103267380D02*
X105959000Y-103267380D01*
X106054238Y-103219761D01*
X106101857Y-103172142D01*
X106197095Y-103029285D01*
X106244714Y-102838809D01*
X106244714Y-102457857D01*
X106197095Y-102362619D01*
X106149476Y-102315000D01*
X106054238Y-102267380D01*
X105863761Y-102267380D01*
X105768523Y-102315000D01*
X105720904Y-102362619D01*
X105673285Y-102457857D01*
X105673285Y-102695952D01*
X105720904Y-102791190D01*
X105768523Y-102838809D01*
X105863761Y-102886428D01*
X106054238Y-102886428D01*
X106149476Y-102838809D01*
X106197095Y-102791190D01*
X106244714Y-102695952D01*
X113674333Y-98307642D02*
X113626714Y-98355261D01*
X113483857Y-98402880D01*
X113388619Y-98402880D01*
X113245761Y-98355261D01*
X113150523Y-98260023D01*
X113102904Y-98164785D01*
X113055285Y-97974309D01*
X113055285Y-97831452D01*
X113102904Y-97640976D01*
X113150523Y-97545738D01*
X113245761Y-97450500D01*
X113388619Y-97402880D01*
X113483857Y-97402880D01*
X113626714Y-97450500D01*
X113674333Y-97498119D01*
X114531476Y-97736214D02*
X114531476Y-98402880D01*
X114293380Y-97355261D02*
X114055285Y-98069547D01*
X114674333Y-98069547D01*
X110533333Y-98157142D02*
X110485714Y-98204761D01*
X110342857Y-98252380D01*
X110247619Y-98252380D01*
X110104761Y-98204761D01*
X110009523Y-98109523D01*
X109961904Y-98014285D01*
X109914285Y-97823809D01*
X109914285Y-97680952D01*
X109961904Y-97490476D01*
X110009523Y-97395238D01*
X110104761Y-97300000D01*
X110247619Y-97252380D01*
X110342857Y-97252380D01*
X110485714Y-97300000D01*
X110533333Y-97347619D01*
X110866666Y-97252380D02*
X111485714Y-97252380D01*
X111152380Y-97633333D01*
X111295238Y-97633333D01*
X111390476Y-97680952D01*
X111438095Y-97728571D01*
X111485714Y-97823809D01*
X111485714Y-98061904D01*
X111438095Y-98157142D01*
X111390476Y-98204761D01*
X111295238Y-98252380D01*
X111009523Y-98252380D01*
X110914285Y-98204761D01*
X110866666Y-98157142D01*
X106054333Y-91657142D02*
X106006714Y-91704761D01*
X105863857Y-91752380D01*
X105768619Y-91752380D01*
X105625761Y-91704761D01*
X105530523Y-91609523D01*
X105482904Y-91514285D01*
X105435285Y-91323809D01*
X105435285Y-91180952D01*
X105482904Y-90990476D01*
X105530523Y-90895238D01*
X105625761Y-90800000D01*
X105768619Y-90752380D01*
X105863857Y-90752380D01*
X106006714Y-90800000D01*
X106054333Y-90847619D01*
X106435285Y-90847619D02*
X106482904Y-90800000D01*
X106578142Y-90752380D01*
X106816238Y-90752380D01*
X106911476Y-90800000D01*
X106959095Y-90847619D01*
X107006714Y-90942857D01*
X107006714Y-91038095D01*
X106959095Y-91180952D01*
X106387666Y-91752380D01*
X107006714Y-91752380D01*
X102433333Y-91557142D02*
X102385714Y-91604761D01*
X102242857Y-91652380D01*
X102147619Y-91652380D01*
X102004761Y-91604761D01*
X101909523Y-91509523D01*
X101861904Y-91414285D01*
X101814285Y-91223809D01*
X101814285Y-91080952D01*
X101861904Y-90890476D01*
X101909523Y-90795238D01*
X102004761Y-90700000D01*
X102147619Y-90652380D01*
X102242857Y-90652380D01*
X102385714Y-90700000D01*
X102433333Y-90747619D01*
X103385714Y-91652380D02*
X102814285Y-91652380D01*
X103100000Y-91652380D02*
X103100000Y-90652380D01*
X103004761Y-90795238D01*
X102909523Y-90890476D01*
X102814285Y-90938095D01*
%LPC*%
D15*
X151540000Y-94250000D03*
X149000000Y-94250000D03*
X146460000Y-94250000D03*
X143920000Y-94250000D03*
G36*
G01*
X95577000Y-117468000D02*
X98577000Y-117468000D01*
G75*
G02*
X100077000Y-118968000I0J-1500000D01*
G01*
X100077000Y-121968000D01*
G75*
G02*
X98577000Y-123468000I-1500000J0D01*
G01*
X95577000Y-123468000D01*
G75*
G02*
X94077000Y-121968000I0J1500000D01*
G01*
X94077000Y-118968000D01*
G75*
G02*
X95577000Y-117468000I1500000J0D01*
G01*
G37*
D16*
X97077000Y-127668000D03*
D17*
X115130000Y-144520000D03*
X164130000Y-144520000D03*
X164130000Y-86520000D03*
D18*
X153690000Y-105645000D03*
X153690000Y-106295000D03*
D19*
X153890000Y-106945000D03*
X153890000Y-107595000D03*
X150390000Y-107595000D03*
D18*
X150590000Y-106945000D03*
D19*
X150390000Y-106295000D03*
X150390000Y-105645000D03*
D20*
X152140000Y-106620000D03*
D21*
X152590000Y-107245000D03*
X151690000Y-107245000D03*
X152590000Y-105995000D03*
X151690000Y-105995000D03*
D19*
X153890000Y-105645000D03*
X153890000Y-106295000D03*
D18*
X153690000Y-106945000D03*
X153690000Y-107595000D03*
X150590000Y-107595000D03*
D19*
X150390000Y-106945000D03*
D18*
X150590000Y-106295000D03*
X150590000Y-105645000D03*
G36*
G01*
X155075000Y-105150000D02*
X154765000Y-105150000D01*
G75*
G02*
X154610000Y-104995000I0J155000D01*
G01*
X154610000Y-104570000D01*
G75*
G02*
X154765000Y-104415000I155000J0D01*
G01*
X155075000Y-104415000D01*
G75*
G02*
X155230000Y-104570000I0J-155000D01*
G01*
X155230000Y-104995000D01*
G75*
G02*
X155075000Y-105150000I-155000J0D01*
G01*
G37*
G36*
G01*
X155075000Y-106285000D02*
X154765000Y-106285000D01*
G75*
G02*
X154610000Y-106130000I0J155000D01*
G01*
X154610000Y-105705000D01*
G75*
G02*
X154765000Y-105550000I155000J0D01*
G01*
X155075000Y-105550000D01*
G75*
G02*
X155230000Y-105705000I0J-155000D01*
G01*
X155230000Y-106130000D01*
G75*
G02*
X155075000Y-106285000I-155000J0D01*
G01*
G37*
G36*
G01*
X149525000Y-105150000D02*
X149215000Y-105150000D01*
G75*
G02*
X149060000Y-104995000I0J155000D01*
G01*
X149060000Y-104570000D01*
G75*
G02*
X149215000Y-104415000I155000J0D01*
G01*
X149525000Y-104415000D01*
G75*
G02*
X149680000Y-104570000I0J-155000D01*
G01*
X149680000Y-104995000D01*
G75*
G02*
X149525000Y-105150000I-155000J0D01*
G01*
G37*
G36*
G01*
X149525000Y-106285000D02*
X149215000Y-106285000D01*
G75*
G02*
X149060000Y-106130000I0J155000D01*
G01*
X149060000Y-105705000D01*
G75*
G02*
X149215000Y-105550000I155000J0D01*
G01*
X149525000Y-105550000D01*
G75*
G02*
X149680000Y-105705000I0J-155000D01*
G01*
X149680000Y-106130000D01*
G75*
G02*
X149525000Y-106285000I-155000J0D01*
G01*
G37*
D22*
X128708000Y-99902000D03*
X126418000Y-99902000D03*
X124128000Y-99902000D03*
X121838000Y-99902000D03*
X119548000Y-99902000D03*
X128708000Y-97612000D03*
X126418000Y-97612000D03*
X124128000Y-97612000D03*
X121838000Y-97612000D03*
X119548000Y-97612000D03*
X128708000Y-95322000D03*
X126418000Y-95322000D03*
X124128000Y-95322000D03*
X121838000Y-95322000D03*
X119548000Y-95322000D03*
X128708000Y-93032000D03*
X126418000Y-93032000D03*
X124128000Y-93032000D03*
X121838000Y-93032000D03*
X119548000Y-93032000D03*
X128708000Y-90742000D03*
X126418000Y-90742000D03*
X124128000Y-90742000D03*
X121838000Y-90742000D03*
X119548000Y-90742000D03*
D23*
X106530000Y-145270000D03*
X106530000Y-142770000D03*
X106530000Y-140270000D03*
X106530000Y-137770000D03*
X106530000Y-135270000D03*
G36*
G01*
X105805000Y-131920000D02*
X107255000Y-131920000D01*
G75*
G02*
X107505000Y-132170000I0J-250000D01*
G01*
X107505000Y-133370000D01*
G75*
G02*
X107255000Y-133620000I-250000J0D01*
G01*
X105805000Y-133620000D01*
G75*
G02*
X105555000Y-133370000I0J250000D01*
G01*
X105555000Y-132170000D01*
G75*
G02*
X105805000Y-131920000I250000J0D01*
G01*
G37*
X149093000Y-145895000D03*
X149093000Y-143395000D03*
G36*
G01*
X148368000Y-140045000D02*
X149818000Y-140045000D01*
G75*
G02*
X150068000Y-140295000I0J-250000D01*
G01*
X150068000Y-141495000D01*
G75*
G02*
X149818000Y-141745000I-250000J0D01*
G01*
X148368000Y-141745000D01*
G75*
G02*
X148118000Y-141495000I0J250000D01*
G01*
X148118000Y-140295000D01*
G75*
G02*
X148368000Y-140045000I250000J0D01*
G01*
G37*
X143693000Y-145895000D03*
X143693000Y-143395000D03*
G36*
G01*
X142968000Y-140045000D02*
X144418000Y-140045000D01*
G75*
G02*
X144668000Y-140295000I0J-250000D01*
G01*
X144668000Y-141495000D01*
G75*
G02*
X144418000Y-141745000I-250000J0D01*
G01*
X142968000Y-141745000D01*
G75*
G02*
X142718000Y-141495000I0J250000D01*
G01*
X142718000Y-140295000D01*
G75*
G02*
X142968000Y-140045000I250000J0D01*
G01*
G37*
X156675000Y-121700000D03*
X156675000Y-124200000D03*
G36*
G01*
X157400000Y-127550000D02*
X155950000Y-127550000D01*
G75*
G02*
X155700000Y-127300000I0J250000D01*
G01*
X155700000Y-126100000D01*
G75*
G02*
X155950000Y-125850000I250000J0D01*
G01*
X157400000Y-125850000D01*
G75*
G02*
X157650000Y-126100000I0J-250000D01*
G01*
X157650000Y-127300000D01*
G75*
G02*
X157400000Y-127550000I-250000J0D01*
G01*
G37*
X156650000Y-133475000D03*
X156650000Y-135975000D03*
G36*
G01*
X157375000Y-139325000D02*
X155925000Y-139325000D01*
G75*
G02*
X155675000Y-139075000I0J250000D01*
G01*
X155675000Y-137875000D01*
G75*
G02*
X155925000Y-137625000I250000J0D01*
G01*
X157375000Y-137625000D01*
G75*
G02*
X157625000Y-137875000I0J-250000D01*
G01*
X157625000Y-139075000D01*
G75*
G02*
X157375000Y-139325000I-250000J0D01*
G01*
G37*
X138443000Y-145895000D03*
X138443000Y-143395000D03*
G36*
G01*
X137718000Y-140045000D02*
X139168000Y-140045000D01*
G75*
G02*
X139418000Y-140295000I0J-250000D01*
G01*
X139418000Y-141495000D01*
G75*
G02*
X139168000Y-141745000I-250000J0D01*
G01*
X137718000Y-141745000D01*
G75*
G02*
X137468000Y-141495000I0J250000D01*
G01*
X137468000Y-140295000D01*
G75*
G02*
X137718000Y-140045000I250000J0D01*
G01*
G37*
X133068000Y-145895000D03*
X133068000Y-143395000D03*
G36*
G01*
X132343000Y-140045000D02*
X133793000Y-140045000D01*
G75*
G02*
X134043000Y-140295000I0J-250000D01*
G01*
X134043000Y-141495000D01*
G75*
G02*
X133793000Y-141745000I-250000J0D01*
G01*
X132343000Y-141745000D01*
G75*
G02*
X132093000Y-141495000I0J250000D01*
G01*
X132093000Y-140295000D01*
G75*
G02*
X132343000Y-140045000I250000J0D01*
G01*
G37*
X127843000Y-145895000D03*
X127843000Y-143395000D03*
G36*
G01*
X127118000Y-140045000D02*
X128568000Y-140045000D01*
G75*
G02*
X128818000Y-140295000I0J-250000D01*
G01*
X128818000Y-141495000D01*
G75*
G02*
X128568000Y-141745000I-250000J0D01*
G01*
X127118000Y-141745000D01*
G75*
G02*
X126868000Y-141495000I0J250000D01*
G01*
X126868000Y-140295000D01*
G75*
G02*
X127118000Y-140045000I250000J0D01*
G01*
G37*
X122693000Y-145895000D03*
X122693000Y-143395000D03*
G36*
G01*
X121968000Y-140045000D02*
X123418000Y-140045000D01*
G75*
G02*
X123668000Y-140295000I0J-250000D01*
G01*
X123668000Y-141495000D01*
G75*
G02*
X123418000Y-141745000I-250000J0D01*
G01*
X121968000Y-141745000D01*
G75*
G02*
X121718000Y-141495000I0J250000D01*
G01*
X121718000Y-140295000D01*
G75*
G02*
X121968000Y-140045000I250000J0D01*
G01*
G37*
G36*
G01*
X143833000Y-114509000D02*
X143833000Y-114234000D01*
G75*
G02*
X143958000Y-114109000I125000J0D01*
G01*
X144208000Y-114109000D01*
G75*
G02*
X144333000Y-114234000I0J-125000D01*
G01*
X144333000Y-114509000D01*
G75*
G02*
X144208000Y-114634000I-125000J0D01*
G01*
X143958000Y-114634000D01*
G75*
G02*
X143833000Y-114509000I0J125000D01*
G01*
G37*
G36*
G01*
X144633000Y-114509000D02*
X144633000Y-114234000D01*
G75*
G02*
X144758000Y-114109000I125000J0D01*
G01*
X145008000Y-114109000D01*
G75*
G02*
X145133000Y-114234000I0J-125000D01*
G01*
X145133000Y-114509000D01*
G75*
G02*
X145008000Y-114634000I-125000J0D01*
G01*
X144758000Y-114634000D01*
G75*
G02*
X144633000Y-114509000I0J125000D01*
G01*
G37*
G36*
G01*
X145433000Y-114509000D02*
X145433000Y-114234000D01*
G75*
G02*
X145558000Y-114109000I125000J0D01*
G01*
X145808000Y-114109000D01*
G75*
G02*
X145933000Y-114234000I0J-125000D01*
G01*
X145933000Y-114509000D01*
G75*
G02*
X145808000Y-114634000I-125000J0D01*
G01*
X145558000Y-114634000D01*
G75*
G02*
X145433000Y-114509000I0J125000D01*
G01*
G37*
G36*
G01*
X146233000Y-114509000D02*
X146233000Y-114234000D01*
G75*
G02*
X146358000Y-114109000I125000J0D01*
G01*
X146608000Y-114109000D01*
G75*
G02*
X146733000Y-114234000I0J-125000D01*
G01*
X146733000Y-114509000D01*
G75*
G02*
X146608000Y-114634000I-125000J0D01*
G01*
X146358000Y-114634000D01*
G75*
G02*
X146233000Y-114509000I0J125000D01*
G01*
G37*
G36*
G01*
X146233000Y-112134000D02*
X146233000Y-111859000D01*
G75*
G02*
X146358000Y-111734000I125000J0D01*
G01*
X146608000Y-111734000D01*
G75*
G02*
X146733000Y-111859000I0J-125000D01*
G01*
X146733000Y-112134000D01*
G75*
G02*
X146608000Y-112259000I-125000J0D01*
G01*
X146358000Y-112259000D01*
G75*
G02*
X146233000Y-112134000I0J125000D01*
G01*
G37*
G36*
G01*
X145433000Y-112134000D02*
X145433000Y-111859000D01*
G75*
G02*
X145558000Y-111734000I125000J0D01*
G01*
X145808000Y-111734000D01*
G75*
G02*
X145933000Y-111859000I0J-125000D01*
G01*
X145933000Y-112134000D01*
G75*
G02*
X145808000Y-112259000I-125000J0D01*
G01*
X145558000Y-112259000D01*
G75*
G02*
X145433000Y-112134000I0J125000D01*
G01*
G37*
G36*
G01*
X144633000Y-112134000D02*
X144633000Y-111859000D01*
G75*
G02*
X144758000Y-111734000I125000J0D01*
G01*
X145008000Y-111734000D01*
G75*
G02*
X145133000Y-111859000I0J-125000D01*
G01*
X145133000Y-112134000D01*
G75*
G02*
X145008000Y-112259000I-125000J0D01*
G01*
X144758000Y-112259000D01*
G75*
G02*
X144633000Y-112134000I0J125000D01*
G01*
G37*
G36*
G01*
X143833000Y-112134000D02*
X143833000Y-111859000D01*
G75*
G02*
X143958000Y-111734000I125000J0D01*
G01*
X144208000Y-111734000D01*
G75*
G02*
X144333000Y-111859000I0J-125000D01*
G01*
X144333000Y-112134000D01*
G75*
G02*
X144208000Y-112259000I-125000J0D01*
G01*
X143958000Y-112259000D01*
G75*
G02*
X143833000Y-112134000I0J125000D01*
G01*
G37*
G36*
G01*
X160561000Y-109577500D02*
X160241000Y-109577500D01*
G75*
G02*
X160081000Y-109417500I0J160000D01*
G01*
X160081000Y-109022500D01*
G75*
G02*
X160241000Y-108862500I160000J0D01*
G01*
X160561000Y-108862500D01*
G75*
G02*
X160721000Y-109022500I0J-160000D01*
G01*
X160721000Y-109417500D01*
G75*
G02*
X160561000Y-109577500I-160000J0D01*
G01*
G37*
G36*
G01*
X160561000Y-110772500D02*
X160241000Y-110772500D01*
G75*
G02*
X160081000Y-110612500I0J160000D01*
G01*
X160081000Y-110217500D01*
G75*
G02*
X160241000Y-110057500I160000J0D01*
G01*
X160561000Y-110057500D01*
G75*
G02*
X160721000Y-110217500I0J-160000D01*
G01*
X160721000Y-110612500D01*
G75*
G02*
X160561000Y-110772500I-160000J0D01*
G01*
G37*
G36*
G01*
X159164000Y-109577500D02*
X158844000Y-109577500D01*
G75*
G02*
X158684000Y-109417500I0J160000D01*
G01*
X158684000Y-109022500D01*
G75*
G02*
X158844000Y-108862500I160000J0D01*
G01*
X159164000Y-108862500D01*
G75*
G02*
X159324000Y-109022500I0J-160000D01*
G01*
X159324000Y-109417500D01*
G75*
G02*
X159164000Y-109577500I-160000J0D01*
G01*
G37*
G36*
G01*
X159164000Y-110772500D02*
X158844000Y-110772500D01*
G75*
G02*
X158684000Y-110612500I0J160000D01*
G01*
X158684000Y-110217500D01*
G75*
G02*
X158844000Y-110057500I160000J0D01*
G01*
X159164000Y-110057500D01*
G75*
G02*
X159324000Y-110217500I0J-160000D01*
G01*
X159324000Y-110612500D01*
G75*
G02*
X159164000Y-110772500I-160000J0D01*
G01*
G37*
G36*
G01*
X158593500Y-112189000D02*
X158593500Y-111879000D01*
G75*
G02*
X158748500Y-111724000I155000J0D01*
G01*
X159173500Y-111724000D01*
G75*
G02*
X159328500Y-111879000I0J-155000D01*
G01*
X159328500Y-112189000D01*
G75*
G02*
X159173500Y-112344000I-155000J0D01*
G01*
X158748500Y-112344000D01*
G75*
G02*
X158593500Y-112189000I0J155000D01*
G01*
G37*
G36*
G01*
X157458500Y-112189000D02*
X157458500Y-111879000D01*
G75*
G02*
X157613500Y-111724000I155000J0D01*
G01*
X158038500Y-111724000D01*
G75*
G02*
X158193500Y-111879000I0J-155000D01*
G01*
X158193500Y-112189000D01*
G75*
G02*
X158038500Y-112344000I-155000J0D01*
G01*
X157613500Y-112344000D01*
G75*
G02*
X157458500Y-112189000I0J155000D01*
G01*
G37*
G36*
G01*
X150641000Y-111879000D02*
X150641000Y-112189000D01*
G75*
G02*
X150486000Y-112344000I-155000J0D01*
G01*
X150061000Y-112344000D01*
G75*
G02*
X149906000Y-112189000I0J155000D01*
G01*
X149906000Y-111879000D01*
G75*
G02*
X150061000Y-111724000I155000J0D01*
G01*
X150486000Y-111724000D01*
G75*
G02*
X150641000Y-111879000I0J-155000D01*
G01*
G37*
G36*
G01*
X151776000Y-111879000D02*
X151776000Y-112189000D01*
G75*
G02*
X151621000Y-112344000I-155000J0D01*
G01*
X151196000Y-112344000D01*
G75*
G02*
X151041000Y-112189000I0J155000D01*
G01*
X151041000Y-111879000D01*
G75*
G02*
X151196000Y-111724000I155000J0D01*
G01*
X151621000Y-111724000D01*
G75*
G02*
X151776000Y-111879000I0J-155000D01*
G01*
G37*
G36*
G01*
X151067500Y-113485000D02*
X151067500Y-113165000D01*
G75*
G02*
X151227500Y-113005000I160000J0D01*
G01*
X151622500Y-113005000D01*
G75*
G02*
X151782500Y-113165000I0J-160000D01*
G01*
X151782500Y-113485000D01*
G75*
G02*
X151622500Y-113645000I-160000J0D01*
G01*
X151227500Y-113645000D01*
G75*
G02*
X151067500Y-113485000I0J160000D01*
G01*
G37*
G36*
G01*
X149872500Y-113485000D02*
X149872500Y-113165000D01*
G75*
G02*
X150032500Y-113005000I160000J0D01*
G01*
X150427500Y-113005000D01*
G75*
G02*
X150587500Y-113165000I0J-160000D01*
G01*
X150587500Y-113485000D01*
G75*
G02*
X150427500Y-113645000I-160000J0D01*
G01*
X150032500Y-113645000D01*
G75*
G02*
X149872500Y-113485000I0J160000D01*
G01*
G37*
G36*
G01*
X151043500Y-110735000D02*
X151043500Y-110415000D01*
G75*
G02*
X151203500Y-110255000I160000J0D01*
G01*
X151598500Y-110255000D01*
G75*
G02*
X151758500Y-110415000I0J-160000D01*
G01*
X151758500Y-110735000D01*
G75*
G02*
X151598500Y-110895000I-160000J0D01*
G01*
X151203500Y-110895000D01*
G75*
G02*
X151043500Y-110735000I0J160000D01*
G01*
G37*
G36*
G01*
X149848500Y-110735000D02*
X149848500Y-110415000D01*
G75*
G02*
X150008500Y-110255000I160000J0D01*
G01*
X150403500Y-110255000D01*
G75*
G02*
X150563500Y-110415000I0J-160000D01*
G01*
X150563500Y-110735000D01*
G75*
G02*
X150403500Y-110895000I-160000J0D01*
G01*
X150008500Y-110895000D01*
G75*
G02*
X149848500Y-110735000I0J160000D01*
G01*
G37*
G36*
G01*
X143267000Y-110559000D02*
X143267000Y-110249000D01*
G75*
G02*
X143422000Y-110094000I155000J0D01*
G01*
X143847000Y-110094000D01*
G75*
G02*
X144002000Y-110249000I0J-155000D01*
G01*
X144002000Y-110559000D01*
G75*
G02*
X143847000Y-110714000I-155000J0D01*
G01*
X143422000Y-110714000D01*
G75*
G02*
X143267000Y-110559000I0J155000D01*
G01*
G37*
G36*
G01*
X142132000Y-110559000D02*
X142132000Y-110249000D01*
G75*
G02*
X142287000Y-110094000I155000J0D01*
G01*
X142712000Y-110094000D01*
G75*
G02*
X142867000Y-110249000I0J-155000D01*
G01*
X142867000Y-110559000D01*
G75*
G02*
X142712000Y-110714000I-155000J0D01*
G01*
X142287000Y-110714000D01*
G75*
G02*
X142132000Y-110559000I0J155000D01*
G01*
G37*
G36*
G01*
X139882500Y-108370000D02*
X139882500Y-108680000D01*
G75*
G02*
X139727500Y-108835000I-155000J0D01*
G01*
X139302500Y-108835000D01*
G75*
G02*
X139147500Y-108680000I0J155000D01*
G01*
X139147500Y-108370000D01*
G75*
G02*
X139302500Y-108215000I155000J0D01*
G01*
X139727500Y-108215000D01*
G75*
G02*
X139882500Y-108370000I0J-155000D01*
G01*
G37*
G36*
G01*
X141017500Y-108370000D02*
X141017500Y-108680000D01*
G75*
G02*
X140862500Y-108835000I-155000J0D01*
G01*
X140437500Y-108835000D01*
G75*
G02*
X140282500Y-108680000I0J155000D01*
G01*
X140282500Y-108370000D01*
G75*
G02*
X140437500Y-108215000I155000J0D01*
G01*
X140862500Y-108215000D01*
G75*
G02*
X141017500Y-108370000I0J-155000D01*
G01*
G37*
G36*
G01*
X139819000Y-106312000D02*
X139819000Y-106622000D01*
G75*
G02*
X139664000Y-106777000I-155000J0D01*
G01*
X139239000Y-106777000D01*
G75*
G02*
X139084000Y-106622000I0J155000D01*
G01*
X139084000Y-106312000D01*
G75*
G02*
X139239000Y-106157000I155000J0D01*
G01*
X139664000Y-106157000D01*
G75*
G02*
X139819000Y-106312000I0J-155000D01*
G01*
G37*
G36*
G01*
X140954000Y-106312000D02*
X140954000Y-106622000D01*
G75*
G02*
X140799000Y-106777000I-155000J0D01*
G01*
X140374000Y-106777000D01*
G75*
G02*
X140219000Y-106622000I0J155000D01*
G01*
X140219000Y-106312000D01*
G75*
G02*
X140374000Y-106157000I155000J0D01*
G01*
X140799000Y-106157000D01*
G75*
G02*
X140954000Y-106312000I0J-155000D01*
G01*
G37*
G36*
G01*
X145509000Y-116432000D02*
X145819000Y-116432000D01*
G75*
G02*
X145974000Y-116587000I0J-155000D01*
G01*
X145974000Y-117012000D01*
G75*
G02*
X145819000Y-117167000I-155000J0D01*
G01*
X145509000Y-117167000D01*
G75*
G02*
X145354000Y-117012000I0J155000D01*
G01*
X145354000Y-116587000D01*
G75*
G02*
X145509000Y-116432000I155000J0D01*
G01*
G37*
G36*
G01*
X145509000Y-115297000D02*
X145819000Y-115297000D01*
G75*
G02*
X145974000Y-115452000I0J-155000D01*
G01*
X145974000Y-115877000D01*
G75*
G02*
X145819000Y-116032000I-155000J0D01*
G01*
X145509000Y-116032000D01*
G75*
G02*
X145354000Y-115877000I0J155000D01*
G01*
X145354000Y-115452000D01*
G75*
G02*
X145509000Y-115297000I155000J0D01*
G01*
G37*
G36*
G01*
X143858000Y-116432000D02*
X144168000Y-116432000D01*
G75*
G02*
X144323000Y-116587000I0J-155000D01*
G01*
X144323000Y-117012000D01*
G75*
G02*
X144168000Y-117167000I-155000J0D01*
G01*
X143858000Y-117167000D01*
G75*
G02*
X143703000Y-117012000I0J155000D01*
G01*
X143703000Y-116587000D01*
G75*
G02*
X143858000Y-116432000I155000J0D01*
G01*
G37*
G36*
G01*
X143858000Y-115297000D02*
X144168000Y-115297000D01*
G75*
G02*
X144323000Y-115452000I0J-155000D01*
G01*
X144323000Y-115877000D01*
G75*
G02*
X144168000Y-116032000I-155000J0D01*
G01*
X143858000Y-116032000D01*
G75*
G02*
X143703000Y-115877000I0J155000D01*
G01*
X143703000Y-115452000D01*
G75*
G02*
X143858000Y-115297000I155000J0D01*
G01*
G37*
G36*
G01*
X131790999Y-97326500D02*
X133991001Y-97326500D01*
G75*
G02*
X134241000Y-97576499I0J-249999D01*
G01*
X134241000Y-98401501D01*
G75*
G02*
X133991001Y-98651500I-249999J0D01*
G01*
X131790999Y-98651500D01*
G75*
G02*
X131541000Y-98401501I0J249999D01*
G01*
X131541000Y-97576499D01*
G75*
G02*
X131790999Y-97326500I249999J0D01*
G01*
G37*
G36*
G01*
X131790999Y-94201500D02*
X133991001Y-94201500D01*
G75*
G02*
X134241000Y-94451499I0J-249999D01*
G01*
X134241000Y-95276501D01*
G75*
G02*
X133991001Y-95526500I-249999J0D01*
G01*
X131790999Y-95526500D01*
G75*
G02*
X131541000Y-95276501I0J249999D01*
G01*
X131541000Y-94451499D01*
G75*
G02*
X131790999Y-94201500I249999J0D01*
G01*
G37*
D24*
X153613000Y-114053000D03*
X153613000Y-113653000D03*
X153613000Y-113253000D03*
X153613000Y-112853000D03*
X153613000Y-112453000D03*
X153613000Y-112053000D03*
X153613000Y-111653000D03*
X153613000Y-111253000D03*
X153613000Y-110853000D03*
X153613000Y-110453000D03*
X155413000Y-110453000D03*
X155413000Y-110853000D03*
X155413000Y-111253000D03*
X155413000Y-111653000D03*
X155413000Y-112053000D03*
X155413000Y-112453000D03*
X155413000Y-112853000D03*
X155413000Y-113253000D03*
X155413000Y-113653000D03*
D25*
X155363000Y-114053000D03*
D26*
X97077000Y-98751000D03*
D27*
X143469000Y-132183000D03*
X146009000Y-132183000D03*
X143469000Y-129643000D03*
X146009000Y-129643000D03*
X143469000Y-127103000D03*
X146009000Y-127103000D03*
X143469000Y-124563000D03*
X146009000Y-124563000D03*
X143469000Y-122023000D03*
X146009000Y-122023000D03*
X118069000Y-134723000D03*
X120609000Y-134723000D03*
X123149000Y-134723000D03*
X125689000Y-134723000D03*
X128229000Y-134723000D03*
X130769000Y-134723000D03*
X133309000Y-134723000D03*
X135849000Y-134723000D03*
X138389000Y-134723000D03*
X140929000Y-134723000D03*
X143469000Y-134723000D03*
X146009000Y-134723000D03*
X148549000Y-134723000D03*
X120609000Y-122023000D03*
X118069000Y-119483000D03*
X120609000Y-119483000D03*
X123149000Y-119483000D03*
X125689000Y-119483000D03*
X128229000Y-119483000D03*
X130769000Y-119483000D03*
X133309000Y-119483000D03*
X135849000Y-119483000D03*
X138389000Y-119483000D03*
X140929000Y-119483000D03*
X143469000Y-119483000D03*
X146009000Y-119483000D03*
X148549000Y-119483000D03*
X151089000Y-134723000D03*
X151089000Y-132183000D03*
X151089000Y-129643000D03*
X151089000Y-119483000D03*
X151089000Y-122023000D03*
X151089000Y-124563000D03*
X151089000Y-127103000D03*
G36*
G01*
X144638000Y-106684000D02*
X144638000Y-106584000D01*
G75*
G02*
X144688000Y-106534000I50000J0D01*
G01*
X145138000Y-106534000D01*
G75*
G02*
X145188000Y-106584000I0J-50000D01*
G01*
X145188000Y-106684000D01*
G75*
G02*
X145138000Y-106734000I-50000J0D01*
G01*
X144688000Y-106734000D01*
G75*
G02*
X144638000Y-106684000I0J50000D01*
G01*
G37*
G36*
G01*
X144638000Y-107084000D02*
X144638000Y-106984000D01*
G75*
G02*
X144688000Y-106934000I50000J0D01*
G01*
X145138000Y-106934000D01*
G75*
G02*
X145188000Y-106984000I0J-50000D01*
G01*
X145188000Y-107084000D01*
G75*
G02*
X145138000Y-107134000I-50000J0D01*
G01*
X144688000Y-107134000D01*
G75*
G02*
X144638000Y-107084000I0J50000D01*
G01*
G37*
G36*
G01*
X144638000Y-107484000D02*
X144638000Y-107384000D01*
G75*
G02*
X144688000Y-107334000I50000J0D01*
G01*
X145138000Y-107334000D01*
G75*
G02*
X145188000Y-107384000I0J-50000D01*
G01*
X145188000Y-107484000D01*
G75*
G02*
X145138000Y-107534000I-50000J0D01*
G01*
X144688000Y-107534000D01*
G75*
G02*
X144638000Y-107484000I0J50000D01*
G01*
G37*
G36*
G01*
X144638000Y-107884000D02*
X144638000Y-107784000D01*
G75*
G02*
X144688000Y-107734000I50000J0D01*
G01*
X145138000Y-107734000D01*
G75*
G02*
X145188000Y-107784000I0J-50000D01*
G01*
X145188000Y-107884000D01*
G75*
G02*
X145138000Y-107934000I-50000J0D01*
G01*
X144688000Y-107934000D01*
G75*
G02*
X144638000Y-107884000I0J50000D01*
G01*
G37*
G36*
G01*
X144638000Y-108284000D02*
X144638000Y-108184000D01*
G75*
G02*
X144688000Y-108134000I50000J0D01*
G01*
X145138000Y-108134000D01*
G75*
G02*
X145188000Y-108184000I0J-50000D01*
G01*
X145188000Y-108284000D01*
G75*
G02*
X145138000Y-108334000I-50000J0D01*
G01*
X144688000Y-108334000D01*
G75*
G02*
X144638000Y-108284000I0J50000D01*
G01*
G37*
G36*
G01*
X144638000Y-108684000D02*
X144638000Y-108584000D01*
G75*
G02*
X144688000Y-108534000I50000J0D01*
G01*
X145138000Y-108534000D01*
G75*
G02*
X145188000Y-108584000I0J-50000D01*
G01*
X145188000Y-108684000D01*
G75*
G02*
X145138000Y-108734000I-50000J0D01*
G01*
X144688000Y-108734000D01*
G75*
G02*
X144638000Y-108684000I0J50000D01*
G01*
G37*
G36*
G01*
X144363000Y-108859000D02*
X144463000Y-108859000D01*
G75*
G02*
X144513000Y-108909000I0J-50000D01*
G01*
X144513000Y-109359000D01*
G75*
G02*
X144463000Y-109409000I-50000J0D01*
G01*
X144363000Y-109409000D01*
G75*
G02*
X144313000Y-109359000I0J50000D01*
G01*
X144313000Y-108909000D01*
G75*
G02*
X144363000Y-108859000I50000J0D01*
G01*
G37*
G36*
G01*
X143963000Y-108859000D02*
X144063000Y-108859000D01*
G75*
G02*
X144113000Y-108909000I0J-50000D01*
G01*
X144113000Y-109359000D01*
G75*
G02*
X144063000Y-109409000I-50000J0D01*
G01*
X143963000Y-109409000D01*
G75*
G02*
X143913000Y-109359000I0J50000D01*
G01*
X143913000Y-108909000D01*
G75*
G02*
X143963000Y-108859000I50000J0D01*
G01*
G37*
G36*
G01*
X143563000Y-108859000D02*
X143663000Y-108859000D01*
G75*
G02*
X143713000Y-108909000I0J-50000D01*
G01*
X143713000Y-109359000D01*
G75*
G02*
X143663000Y-109409000I-50000J0D01*
G01*
X143563000Y-109409000D01*
G75*
G02*
X143513000Y-109359000I0J50000D01*
G01*
X143513000Y-108909000D01*
G75*
G02*
X143563000Y-108859000I50000J0D01*
G01*
G37*
G36*
G01*
X143163000Y-108859000D02*
X143263000Y-108859000D01*
G75*
G02*
X143313000Y-108909000I0J-50000D01*
G01*
X143313000Y-109359000D01*
G75*
G02*
X143263000Y-109409000I-50000J0D01*
G01*
X143163000Y-109409000D01*
G75*
G02*
X143113000Y-109359000I0J50000D01*
G01*
X143113000Y-108909000D01*
G75*
G02*
X143163000Y-108859000I50000J0D01*
G01*
G37*
G36*
G01*
X142763000Y-108859000D02*
X142863000Y-108859000D01*
G75*
G02*
X142913000Y-108909000I0J-50000D01*
G01*
X142913000Y-109359000D01*
G75*
G02*
X142863000Y-109409000I-50000J0D01*
G01*
X142763000Y-109409000D01*
G75*
G02*
X142713000Y-109359000I0J50000D01*
G01*
X142713000Y-108909000D01*
G75*
G02*
X142763000Y-108859000I50000J0D01*
G01*
G37*
G36*
G01*
X142363000Y-108859000D02*
X142463000Y-108859000D01*
G75*
G02*
X142513000Y-108909000I0J-50000D01*
G01*
X142513000Y-109359000D01*
G75*
G02*
X142463000Y-109409000I-50000J0D01*
G01*
X142363000Y-109409000D01*
G75*
G02*
X142313000Y-109359000I0J50000D01*
G01*
X142313000Y-108909000D01*
G75*
G02*
X142363000Y-108859000I50000J0D01*
G01*
G37*
G36*
G01*
X141638000Y-108684000D02*
X141638000Y-108584000D01*
G75*
G02*
X141688000Y-108534000I50000J0D01*
G01*
X142138000Y-108534000D01*
G75*
G02*
X142188000Y-108584000I0J-50000D01*
G01*
X142188000Y-108684000D01*
G75*
G02*
X142138000Y-108734000I-50000J0D01*
G01*
X141688000Y-108734000D01*
G75*
G02*
X141638000Y-108684000I0J50000D01*
G01*
G37*
G36*
G01*
X141638000Y-108284000D02*
X141638000Y-108184000D01*
G75*
G02*
X141688000Y-108134000I50000J0D01*
G01*
X142138000Y-108134000D01*
G75*
G02*
X142188000Y-108184000I0J-50000D01*
G01*
X142188000Y-108284000D01*
G75*
G02*
X142138000Y-108334000I-50000J0D01*
G01*
X141688000Y-108334000D01*
G75*
G02*
X141638000Y-108284000I0J50000D01*
G01*
G37*
G36*
G01*
X141638000Y-107884000D02*
X141638000Y-107784000D01*
G75*
G02*
X141688000Y-107734000I50000J0D01*
G01*
X142138000Y-107734000D01*
G75*
G02*
X142188000Y-107784000I0J-50000D01*
G01*
X142188000Y-107884000D01*
G75*
G02*
X142138000Y-107934000I-50000J0D01*
G01*
X141688000Y-107934000D01*
G75*
G02*
X141638000Y-107884000I0J50000D01*
G01*
G37*
G36*
G01*
X141638000Y-107484000D02*
X141638000Y-107384000D01*
G75*
G02*
X141688000Y-107334000I50000J0D01*
G01*
X142138000Y-107334000D01*
G75*
G02*
X142188000Y-107384000I0J-50000D01*
G01*
X142188000Y-107484000D01*
G75*
G02*
X142138000Y-107534000I-50000J0D01*
G01*
X141688000Y-107534000D01*
G75*
G02*
X141638000Y-107484000I0J50000D01*
G01*
G37*
G36*
G01*
X141638000Y-107084000D02*
X141638000Y-106984000D01*
G75*
G02*
X141688000Y-106934000I50000J0D01*
G01*
X142138000Y-106934000D01*
G75*
G02*
X142188000Y-106984000I0J-50000D01*
G01*
X142188000Y-107084000D01*
G75*
G02*
X142138000Y-107134000I-50000J0D01*
G01*
X141688000Y-107134000D01*
G75*
G02*
X141638000Y-107084000I0J50000D01*
G01*
G37*
G36*
G01*
X141638000Y-106684000D02*
X141638000Y-106584000D01*
G75*
G02*
X141688000Y-106534000I50000J0D01*
G01*
X142138000Y-106534000D01*
G75*
G02*
X142188000Y-106584000I0J-50000D01*
G01*
X142188000Y-106684000D01*
G75*
G02*
X142138000Y-106734000I-50000J0D01*
G01*
X141688000Y-106734000D01*
G75*
G02*
X141638000Y-106684000I0J50000D01*
G01*
G37*
G36*
G01*
X142363000Y-105859000D02*
X142463000Y-105859000D01*
G75*
G02*
X142513000Y-105909000I0J-50000D01*
G01*
X142513000Y-106359000D01*
G75*
G02*
X142463000Y-106409000I-50000J0D01*
G01*
X142363000Y-106409000D01*
G75*
G02*
X142313000Y-106359000I0J50000D01*
G01*
X142313000Y-105909000D01*
G75*
G02*
X142363000Y-105859000I50000J0D01*
G01*
G37*
G36*
G01*
X142763000Y-105859000D02*
X142863000Y-105859000D01*
G75*
G02*
X142913000Y-105909000I0J-50000D01*
G01*
X142913000Y-106359000D01*
G75*
G02*
X142863000Y-106409000I-50000J0D01*
G01*
X142763000Y-106409000D01*
G75*
G02*
X142713000Y-106359000I0J50000D01*
G01*
X142713000Y-105909000D01*
G75*
G02*
X142763000Y-105859000I50000J0D01*
G01*
G37*
G36*
G01*
X143163000Y-105859000D02*
X143263000Y-105859000D01*
G75*
G02*
X143313000Y-105909000I0J-50000D01*
G01*
X143313000Y-106359000D01*
G75*
G02*
X143263000Y-106409000I-50000J0D01*
G01*
X143163000Y-106409000D01*
G75*
G02*
X143113000Y-106359000I0J50000D01*
G01*
X143113000Y-105909000D01*
G75*
G02*
X143163000Y-105859000I50000J0D01*
G01*
G37*
G36*
G01*
X143563000Y-105859000D02*
X143663000Y-105859000D01*
G75*
G02*
X143713000Y-105909000I0J-50000D01*
G01*
X143713000Y-106359000D01*
G75*
G02*
X143663000Y-106409000I-50000J0D01*
G01*
X143563000Y-106409000D01*
G75*
G02*
X143513000Y-106359000I0J50000D01*
G01*
X143513000Y-105909000D01*
G75*
G02*
X143563000Y-105859000I50000J0D01*
G01*
G37*
G36*
G01*
X143963000Y-105859000D02*
X144063000Y-105859000D01*
G75*
G02*
X144113000Y-105909000I0J-50000D01*
G01*
X144113000Y-106359000D01*
G75*
G02*
X144063000Y-106409000I-50000J0D01*
G01*
X143963000Y-106409000D01*
G75*
G02*
X143913000Y-106359000I0J50000D01*
G01*
X143913000Y-105909000D01*
G75*
G02*
X143963000Y-105859000I50000J0D01*
G01*
G37*
G36*
G01*
X144363000Y-105859000D02*
X144463000Y-105859000D01*
G75*
G02*
X144513000Y-105909000I0J-50000D01*
G01*
X144513000Y-106359000D01*
G75*
G02*
X144463000Y-106409000I-50000J0D01*
G01*
X144363000Y-106409000D01*
G75*
G02*
X144313000Y-106359000I0J50000D01*
G01*
X144313000Y-105909000D01*
G75*
G02*
X144363000Y-105859000I50000J0D01*
G01*
G37*
G36*
G01*
X109547000Y-108634000D02*
X109547000Y-108934000D01*
G75*
G02*
X109397000Y-109084000I-150000J0D01*
G01*
X107747000Y-109084000D01*
G75*
G02*
X107597000Y-108934000I0J150000D01*
G01*
X107597000Y-108634000D01*
G75*
G02*
X107747000Y-108484000I150000J0D01*
G01*
X109397000Y-108484000D01*
G75*
G02*
X109547000Y-108634000I0J-150000D01*
G01*
G37*
G36*
G01*
X109547000Y-107364000D02*
X109547000Y-107664000D01*
G75*
G02*
X109397000Y-107814000I-150000J0D01*
G01*
X107747000Y-107814000D01*
G75*
G02*
X107597000Y-107664000I0J150000D01*
G01*
X107597000Y-107364000D01*
G75*
G02*
X107747000Y-107214000I150000J0D01*
G01*
X109397000Y-107214000D01*
G75*
G02*
X109547000Y-107364000I0J-150000D01*
G01*
G37*
G36*
G01*
X109547000Y-106094000D02*
X109547000Y-106394000D01*
G75*
G02*
X109397000Y-106544000I-150000J0D01*
G01*
X107747000Y-106544000D01*
G75*
G02*
X107597000Y-106394000I0J150000D01*
G01*
X107597000Y-106094000D01*
G75*
G02*
X107747000Y-105944000I150000J0D01*
G01*
X109397000Y-105944000D01*
G75*
G02*
X109547000Y-106094000I0J-150000D01*
G01*
G37*
G36*
G01*
X109547000Y-104824000D02*
X109547000Y-105124000D01*
G75*
G02*
X109397000Y-105274000I-150000J0D01*
G01*
X107747000Y-105274000D01*
G75*
G02*
X107597000Y-105124000I0J150000D01*
G01*
X107597000Y-104824000D01*
G75*
G02*
X107747000Y-104674000I150000J0D01*
G01*
X109397000Y-104674000D01*
G75*
G02*
X109547000Y-104824000I0J-150000D01*
G01*
G37*
G36*
G01*
X114497000Y-104824000D02*
X114497000Y-105124000D01*
G75*
G02*
X114347000Y-105274000I-150000J0D01*
G01*
X112697000Y-105274000D01*
G75*
G02*
X112547000Y-105124000I0J150000D01*
G01*
X112547000Y-104824000D01*
G75*
G02*
X112697000Y-104674000I150000J0D01*
G01*
X114347000Y-104674000D01*
G75*
G02*
X114497000Y-104824000I0J-150000D01*
G01*
G37*
G36*
G01*
X114497000Y-106094000D02*
X114497000Y-106394000D01*
G75*
G02*
X114347000Y-106544000I-150000J0D01*
G01*
X112697000Y-106544000D01*
G75*
G02*
X112547000Y-106394000I0J150000D01*
G01*
X112547000Y-106094000D01*
G75*
G02*
X112697000Y-105944000I150000J0D01*
G01*
X114347000Y-105944000D01*
G75*
G02*
X114497000Y-106094000I0J-150000D01*
G01*
G37*
G36*
G01*
X114497000Y-107364000D02*
X114497000Y-107664000D01*
G75*
G02*
X114347000Y-107814000I-150000J0D01*
G01*
X112697000Y-107814000D01*
G75*
G02*
X112547000Y-107664000I0J150000D01*
G01*
X112547000Y-107364000D01*
G75*
G02*
X112697000Y-107214000I150000J0D01*
G01*
X114347000Y-107214000D01*
G75*
G02*
X114497000Y-107364000I0J-150000D01*
G01*
G37*
G36*
G01*
X114497000Y-108634000D02*
X114497000Y-108934000D01*
G75*
G02*
X114347000Y-109084000I-150000J0D01*
G01*
X112697000Y-109084000D01*
G75*
G02*
X112547000Y-108934000I0J150000D01*
G01*
X112547000Y-108634000D01*
G75*
G02*
X112697000Y-108484000I150000J0D01*
G01*
X114347000Y-108484000D01*
G75*
G02*
X114497000Y-108634000I0J-150000D01*
G01*
G37*
D28*
X109150000Y-121855000D03*
X109150000Y-119315000D03*
D29*
X109150000Y-116775000D03*
G36*
G01*
X114406500Y-121142500D02*
X114406500Y-120667500D01*
G75*
G02*
X114644000Y-120430000I237500J0D01*
G01*
X115144000Y-120430000D01*
G75*
G02*
X115381500Y-120667500I0J-237500D01*
G01*
X115381500Y-121142500D01*
G75*
G02*
X115144000Y-121380000I-237500J0D01*
G01*
X114644000Y-121380000D01*
G75*
G02*
X114406500Y-121142500I0J237500D01*
G01*
G37*
G36*
G01*
X112581500Y-121142500D02*
X112581500Y-120667500D01*
G75*
G02*
X112819000Y-120430000I237500J0D01*
G01*
X113319000Y-120430000D01*
G75*
G02*
X113556500Y-120667500I0J-237500D01*
G01*
X113556500Y-121142500D01*
G75*
G02*
X113319000Y-121380000I-237500J0D01*
G01*
X112819000Y-121380000D01*
G75*
G02*
X112581500Y-121142500I0J237500D01*
G01*
G37*
G36*
G01*
X103598000Y-107497500D02*
X103598000Y-107022500D01*
G75*
G02*
X103835500Y-106785000I237500J0D01*
G01*
X104335500Y-106785000D01*
G75*
G02*
X104573000Y-107022500I0J-237500D01*
G01*
X104573000Y-107497500D01*
G75*
G02*
X104335500Y-107735000I-237500J0D01*
G01*
X103835500Y-107735000D01*
G75*
G02*
X103598000Y-107497500I0J237500D01*
G01*
G37*
G36*
G01*
X101773000Y-107497500D02*
X101773000Y-107022500D01*
G75*
G02*
X102010500Y-106785000I237500J0D01*
G01*
X102510500Y-106785000D01*
G75*
G02*
X102748000Y-107022500I0J-237500D01*
G01*
X102748000Y-107497500D01*
G75*
G02*
X102510500Y-107735000I-237500J0D01*
G01*
X102010500Y-107735000D01*
G75*
G02*
X101773000Y-107497500I0J237500D01*
G01*
G37*
G36*
G01*
X103598000Y-109275500D02*
X103598000Y-108800500D01*
G75*
G02*
X103835500Y-108563000I237500J0D01*
G01*
X104335500Y-108563000D01*
G75*
G02*
X104573000Y-108800500I0J-237500D01*
G01*
X104573000Y-109275500D01*
G75*
G02*
X104335500Y-109513000I-237500J0D01*
G01*
X103835500Y-109513000D01*
G75*
G02*
X103598000Y-109275500I0J237500D01*
G01*
G37*
G36*
G01*
X101773000Y-109275500D02*
X101773000Y-108800500D01*
G75*
G02*
X102010500Y-108563000I237500J0D01*
G01*
X102510500Y-108563000D01*
G75*
G02*
X102748000Y-108800500I0J-237500D01*
G01*
X102748000Y-109275500D01*
G75*
G02*
X102510500Y-109513000I-237500J0D01*
G01*
X102010500Y-109513000D01*
G75*
G02*
X101773000Y-109275500I0J237500D01*
G01*
G37*
D30*
X97077000Y-112512000D03*
X97077000Y-104212000D03*
G36*
G01*
X136381500Y-122375000D02*
X135906500Y-122375000D01*
G75*
G02*
X135669000Y-122137500I0J237500D01*
G01*
X135669000Y-121637500D01*
G75*
G02*
X135906500Y-121400000I237500J0D01*
G01*
X136381500Y-121400000D01*
G75*
G02*
X136619000Y-121637500I0J-237500D01*
G01*
X136619000Y-122137500D01*
G75*
G02*
X136381500Y-122375000I-237500J0D01*
G01*
G37*
G36*
G01*
X136381500Y-124200000D02*
X135906500Y-124200000D01*
G75*
G02*
X135669000Y-123962500I0J237500D01*
G01*
X135669000Y-123462500D01*
G75*
G02*
X135906500Y-123225000I237500J0D01*
G01*
X136381500Y-123225000D01*
G75*
G02*
X136619000Y-123462500I0J-237500D01*
G01*
X136619000Y-123962500D01*
G75*
G02*
X136381500Y-124200000I-237500J0D01*
G01*
G37*
G36*
G01*
X115000500Y-101819500D02*
X115475500Y-101819500D01*
G75*
G02*
X115713000Y-102057000I0J-237500D01*
G01*
X115713000Y-102557000D01*
G75*
G02*
X115475500Y-102794500I-237500J0D01*
G01*
X115000500Y-102794500D01*
G75*
G02*
X114763000Y-102557000I0J237500D01*
G01*
X114763000Y-102057000D01*
G75*
G02*
X115000500Y-101819500I237500J0D01*
G01*
G37*
G36*
G01*
X115000500Y-99994500D02*
X115475500Y-99994500D01*
G75*
G02*
X115713000Y-100232000I0J-237500D01*
G01*
X115713000Y-100732000D01*
G75*
G02*
X115475500Y-100969500I-237500J0D01*
G01*
X115000500Y-100969500D01*
G75*
G02*
X114763000Y-100732000I0J237500D01*
G01*
X114763000Y-100232000D01*
G75*
G02*
X115000500Y-99994500I237500J0D01*
G01*
G37*
G36*
G01*
X138245500Y-122360000D02*
X137770500Y-122360000D01*
G75*
G02*
X137533000Y-122122500I0J237500D01*
G01*
X137533000Y-121622500D01*
G75*
G02*
X137770500Y-121385000I237500J0D01*
G01*
X138245500Y-121385000D01*
G75*
G02*
X138483000Y-121622500I0J-237500D01*
G01*
X138483000Y-122122500D01*
G75*
G02*
X138245500Y-122360000I-237500J0D01*
G01*
G37*
G36*
G01*
X138245500Y-124185000D02*
X137770500Y-124185000D01*
G75*
G02*
X137533000Y-123947500I0J237500D01*
G01*
X137533000Y-123447500D01*
G75*
G02*
X137770500Y-123210000I237500J0D01*
G01*
X138245500Y-123210000D01*
G75*
G02*
X138483000Y-123447500I0J-237500D01*
G01*
X138483000Y-123947500D01*
G75*
G02*
X138245500Y-124185000I-237500J0D01*
G01*
G37*
G36*
G01*
X112366500Y-90965000D02*
X112366500Y-89265000D01*
G75*
G02*
X112616500Y-89015000I250000J0D01*
G01*
X113541500Y-89015000D01*
G75*
G02*
X113791500Y-89265000I0J-250000D01*
G01*
X113791500Y-90965000D01*
G75*
G02*
X113541500Y-91215000I-250000J0D01*
G01*
X112616500Y-91215000D01*
G75*
G02*
X112366500Y-90965000I0J250000D01*
G01*
G37*
G36*
G01*
X110041500Y-90965000D02*
X110041500Y-89265000D01*
G75*
G02*
X110291500Y-89015000I250000J0D01*
G01*
X111216500Y-89015000D01*
G75*
G02*
X111466500Y-89265000I0J-250000D01*
G01*
X111466500Y-90965000D01*
G75*
G02*
X111216500Y-91215000I-250000J0D01*
G01*
X110291500Y-91215000D01*
G75*
G02*
X110041500Y-90965000I0J250000D01*
G01*
G37*
D23*
X127800000Y-108800000D03*
X127800000Y-111300000D03*
G36*
G01*
X128525000Y-114650000D02*
X127075000Y-114650000D01*
G75*
G02*
X126825000Y-114400000I0J250000D01*
G01*
X126825000Y-113200000D01*
G75*
G02*
X127075000Y-112950000I250000J0D01*
G01*
X128525000Y-112950000D01*
G75*
G02*
X128775000Y-113200000I0J-250000D01*
G01*
X128775000Y-114400000D01*
G75*
G02*
X128525000Y-114650000I-250000J0D01*
G01*
G37*
X133400000Y-108800000D03*
X133400000Y-111300000D03*
G36*
G01*
X134125000Y-114650000D02*
X132675000Y-114650000D01*
G75*
G02*
X132425000Y-114400000I0J250000D01*
G01*
X132425000Y-113200000D01*
G75*
G02*
X132675000Y-112950000I250000J0D01*
G01*
X134125000Y-112950000D01*
G75*
G02*
X134375000Y-113200000I0J-250000D01*
G01*
X134375000Y-114400000D01*
G75*
G02*
X134125000Y-114650000I-250000J0D01*
G01*
G37*
D28*
X165403000Y-139645000D03*
X162863000Y-139645000D03*
X165403000Y-137105000D03*
X162863000Y-137105000D03*
X165403000Y-134565000D03*
X162863000Y-134565000D03*
X165403000Y-132025000D03*
X162863000Y-132025000D03*
X165403000Y-129485000D03*
X162863000Y-129485000D03*
X165403000Y-126945000D03*
X162863000Y-126945000D03*
X165403000Y-124405000D03*
X162863000Y-124405000D03*
X165403000Y-121865000D03*
X162863000Y-121865000D03*
X165403000Y-119325000D03*
X162863000Y-119325000D03*
X165403000Y-116785000D03*
X162863000Y-116785000D03*
X165403000Y-114245000D03*
X162863000Y-114245000D03*
X165403000Y-111705000D03*
X162863000Y-111705000D03*
X165403000Y-109165000D03*
X162863000Y-109165000D03*
X165403000Y-106625000D03*
X162863000Y-106625000D03*
X165403000Y-104085000D03*
X162863000Y-104085000D03*
X165403000Y-101545000D03*
X162863000Y-101545000D03*
X165403000Y-99005000D03*
X162863000Y-99005000D03*
X165403000Y-96465000D03*
X162863000Y-96465000D03*
X165403000Y-93925000D03*
X162863000Y-93925000D03*
X165403000Y-91385000D03*
D29*
X162863000Y-91385000D03*
G36*
G01*
X114406500Y-119491500D02*
X114406500Y-119016500D01*
G75*
G02*
X114644000Y-118779000I237500J0D01*
G01*
X115144000Y-118779000D01*
G75*
G02*
X115381500Y-119016500I0J-237500D01*
G01*
X115381500Y-119491500D01*
G75*
G02*
X115144000Y-119729000I-237500J0D01*
G01*
X114644000Y-119729000D01*
G75*
G02*
X114406500Y-119491500I0J237500D01*
G01*
G37*
G36*
G01*
X112581500Y-119491500D02*
X112581500Y-119016500D01*
G75*
G02*
X112819000Y-118779000I237500J0D01*
G01*
X113319000Y-118779000D01*
G75*
G02*
X113556500Y-119016500I0J-237500D01*
G01*
X113556500Y-119491500D01*
G75*
G02*
X113319000Y-119729000I-237500J0D01*
G01*
X112819000Y-119729000D01*
G75*
G02*
X112581500Y-119491500I0J237500D01*
G01*
G37*
G36*
G01*
X113222500Y-101843000D02*
X113697500Y-101843000D01*
G75*
G02*
X113935000Y-102080500I0J-237500D01*
G01*
X113935000Y-102580500D01*
G75*
G02*
X113697500Y-102818000I-237500J0D01*
G01*
X113222500Y-102818000D01*
G75*
G02*
X112985000Y-102580500I0J237500D01*
G01*
X112985000Y-102080500D01*
G75*
G02*
X113222500Y-101843000I237500J0D01*
G01*
G37*
G36*
G01*
X113222500Y-100018000D02*
X113697500Y-100018000D01*
G75*
G02*
X113935000Y-100255500I0J-237500D01*
G01*
X113935000Y-100755500D01*
G75*
G02*
X113697500Y-100993000I-237500J0D01*
G01*
X113222500Y-100993000D01*
G75*
G02*
X112985000Y-100755500I0J237500D01*
G01*
X112985000Y-100255500D01*
G75*
G02*
X113222500Y-100018000I237500J0D01*
G01*
G37*
G36*
G01*
X105134000Y-103974500D02*
X105134000Y-104449500D01*
G75*
G02*
X104896500Y-104687000I-237500J0D01*
G01*
X104296500Y-104687000D01*
G75*
G02*
X104059000Y-104449500I0J237500D01*
G01*
X104059000Y-103974500D01*
G75*
G02*
X104296500Y-103737000I237500J0D01*
G01*
X104896500Y-103737000D01*
G75*
G02*
X105134000Y-103974500I0J-237500D01*
G01*
G37*
G36*
G01*
X106859000Y-103974500D02*
X106859000Y-104449500D01*
G75*
G02*
X106621500Y-104687000I-237500J0D01*
G01*
X106021500Y-104687000D01*
G75*
G02*
X105784000Y-104449500I0J237500D01*
G01*
X105784000Y-103974500D01*
G75*
G02*
X106021500Y-103737000I237500J0D01*
G01*
X106621500Y-103737000D01*
G75*
G02*
X106859000Y-103974500I0J-237500D01*
G01*
G37*
G36*
G01*
X106077500Y-107824000D02*
X105602500Y-107824000D01*
G75*
G02*
X105365000Y-107586500I0J237500D01*
G01*
X105365000Y-106986500D01*
G75*
G02*
X105602500Y-106749000I237500J0D01*
G01*
X106077500Y-106749000D01*
G75*
G02*
X106315000Y-106986500I0J-237500D01*
G01*
X106315000Y-107586500D01*
G75*
G02*
X106077500Y-107824000I-237500J0D01*
G01*
G37*
G36*
G01*
X106077500Y-109549000D02*
X105602500Y-109549000D01*
G75*
G02*
X105365000Y-109311500I0J237500D01*
G01*
X105365000Y-108711500D01*
G75*
G02*
X105602500Y-108474000I237500J0D01*
G01*
X106077500Y-108474000D01*
G75*
G02*
X106315000Y-108711500I0J-237500D01*
G01*
X106315000Y-109311500D01*
G75*
G02*
X106077500Y-109549000I-237500J0D01*
G01*
G37*
G36*
G01*
X112740999Y-95460000D02*
X114941001Y-95460000D01*
G75*
G02*
X115191000Y-95709999I0J-249999D01*
G01*
X115191000Y-96535001D01*
G75*
G02*
X114941001Y-96785000I-249999J0D01*
G01*
X112740999Y-96785000D01*
G75*
G02*
X112491000Y-96535001I0J249999D01*
G01*
X112491000Y-95709999D01*
G75*
G02*
X112740999Y-95460000I249999J0D01*
G01*
G37*
G36*
G01*
X112740999Y-92335000D02*
X114941001Y-92335000D01*
G75*
G02*
X115191000Y-92584999I0J-249999D01*
G01*
X115191000Y-93410001D01*
G75*
G02*
X114941001Y-93660000I-249999J0D01*
G01*
X112740999Y-93660000D01*
G75*
G02*
X112491000Y-93410001I0J249999D01*
G01*
X112491000Y-92584999D01*
G75*
G02*
X112740999Y-92335000I249999J0D01*
G01*
G37*
G36*
G01*
X108930999Y-95498500D02*
X111131001Y-95498500D01*
G75*
G02*
X111381000Y-95748499I0J-249999D01*
G01*
X111381000Y-96573501D01*
G75*
G02*
X111131001Y-96823500I-249999J0D01*
G01*
X108930999Y-96823500D01*
G75*
G02*
X108681000Y-96573501I0J249999D01*
G01*
X108681000Y-95748499D01*
G75*
G02*
X108930999Y-95498500I249999J0D01*
G01*
G37*
G36*
G01*
X108930999Y-92373500D02*
X111131001Y-92373500D01*
G75*
G02*
X111381000Y-92623499I0J-249999D01*
G01*
X111381000Y-93448501D01*
G75*
G02*
X111131001Y-93698500I-249999J0D01*
G01*
X108930999Y-93698500D01*
G75*
G02*
X108681000Y-93448501I0J249999D01*
G01*
X108681000Y-92623499D01*
G75*
G02*
X108930999Y-92373500I249999J0D01*
G01*
G37*
G36*
G01*
X105120999Y-95498500D02*
X107321001Y-95498500D01*
G75*
G02*
X107571000Y-95748499I0J-249999D01*
G01*
X107571000Y-96573501D01*
G75*
G02*
X107321001Y-96823500I-249999J0D01*
G01*
X105120999Y-96823500D01*
G75*
G02*
X104871000Y-96573501I0J249999D01*
G01*
X104871000Y-95748499D01*
G75*
G02*
X105120999Y-95498500I249999J0D01*
G01*
G37*
G36*
G01*
X105120999Y-92373500D02*
X107321001Y-92373500D01*
G75*
G02*
X107571000Y-92623499I0J-249999D01*
G01*
X107571000Y-93448501D01*
G75*
G02*
X107321001Y-93698500I-249999J0D01*
G01*
X105120999Y-93698500D01*
G75*
G02*
X104871000Y-93448501I0J249999D01*
G01*
X104871000Y-92623499D01*
G75*
G02*
X105120999Y-92373500I249999J0D01*
G01*
G37*
G36*
G01*
X101310999Y-95498500D02*
X103511001Y-95498500D01*
G75*
G02*
X103761000Y-95748499I0J-249999D01*
G01*
X103761000Y-96573501D01*
G75*
G02*
X103511001Y-96823500I-249999J0D01*
G01*
X101310999Y-96823500D01*
G75*
G02*
X101061000Y-96573501I0J249999D01*
G01*
X101061000Y-95748499D01*
G75*
G02*
X101310999Y-95498500I249999J0D01*
G01*
G37*
G36*
G01*
X101310999Y-92373500D02*
X103511001Y-92373500D01*
G75*
G02*
X103761000Y-92623499I0J-249999D01*
G01*
X103761000Y-93448501D01*
G75*
G02*
X103511001Y-93698500I-249999J0D01*
G01*
X101310999Y-93698500D01*
G75*
G02*
X101061000Y-93448501I0J249999D01*
G01*
X101061000Y-92623499D01*
G75*
G02*
X101310999Y-92373500I249999J0D01*
G01*
G37*
M02*
