G04 #@! TF.GenerationSoftware,KiCad,Pcbnew,(5.1.8)-1*
G04 #@! TF.CreationDate,2021-06-15T20:05:41+00:00*
G04 #@! TF.ProjectId,RPHat_V2,52504861-745f-4563-922e-6b696361645f,rev?*
G04 #@! TF.SameCoordinates,Original*
G04 #@! TF.FileFunction,Legend,Bot*
G04 #@! TF.FilePolarity,Positive*
%FSLAX46Y46*%
G04 Gerber Fmt 4.6, Leading zero omitted, Abs format (unit mm)*
G04 Created by KiCad (PCBNEW (5.1.8)-1) date 2021-06-15 20:05:41*
%MOMM*%
%LPD*%
G01*
G04 APERTURE LIST*
%ADD10C,1.700000*%
%ADD11C,6.000000*%
%ADD12C,2.700000*%
%ADD13O,1.950000X1.700000*%
%ADD14C,2.600000*%
%ADD15C,1.600000*%
%ADD16O,1.700000X1.700000*%
%ADD17R,1.700000X1.700000*%
G04 APERTURE END LIST*
%LPC*%
D10*
X151540000Y-94250000D03*
X149000000Y-94250000D03*
X146460000Y-94250000D03*
X143920000Y-94250000D03*
G36*
G01*
X95577000Y-117468000D02*
X98577000Y-117468000D01*
G75*
G02*
X100077000Y-118968000I0J-1500000D01*
G01*
X100077000Y-121968000D01*
G75*
G02*
X98577000Y-123468000I-1500000J0D01*
G01*
X95577000Y-123468000D01*
G75*
G02*
X94077000Y-121968000I0J1500000D01*
G01*
X94077000Y-118968000D01*
G75*
G02*
X95577000Y-117468000I1500000J0D01*
G01*
G37*
D11*
X97077000Y-127668000D03*
D12*
X115130000Y-144520000D03*
X164130000Y-144520000D03*
X164130000Y-86520000D03*
D13*
X106530000Y-145270000D03*
X106530000Y-142770000D03*
X106530000Y-140270000D03*
X106530000Y-137770000D03*
X106530000Y-135270000D03*
G36*
G01*
X105805000Y-131920000D02*
X107255000Y-131920000D01*
G75*
G02*
X107505000Y-132170000I0J-250000D01*
G01*
X107505000Y-133370000D01*
G75*
G02*
X107255000Y-133620000I-250000J0D01*
G01*
X105805000Y-133620000D01*
G75*
G02*
X105555000Y-133370000I0J250000D01*
G01*
X105555000Y-132170000D01*
G75*
G02*
X105805000Y-131920000I250000J0D01*
G01*
G37*
X149093000Y-145895000D03*
X149093000Y-143395000D03*
G36*
G01*
X148368000Y-140045000D02*
X149818000Y-140045000D01*
G75*
G02*
X150068000Y-140295000I0J-250000D01*
G01*
X150068000Y-141495000D01*
G75*
G02*
X149818000Y-141745000I-250000J0D01*
G01*
X148368000Y-141745000D01*
G75*
G02*
X148118000Y-141495000I0J250000D01*
G01*
X148118000Y-140295000D01*
G75*
G02*
X148368000Y-140045000I250000J0D01*
G01*
G37*
X143693000Y-145895000D03*
X143693000Y-143395000D03*
G36*
G01*
X142968000Y-140045000D02*
X144418000Y-140045000D01*
G75*
G02*
X144668000Y-140295000I0J-250000D01*
G01*
X144668000Y-141495000D01*
G75*
G02*
X144418000Y-141745000I-250000J0D01*
G01*
X142968000Y-141745000D01*
G75*
G02*
X142718000Y-141495000I0J250000D01*
G01*
X142718000Y-140295000D01*
G75*
G02*
X142968000Y-140045000I250000J0D01*
G01*
G37*
X156675000Y-121700000D03*
X156675000Y-124200000D03*
G36*
G01*
X157400000Y-127550000D02*
X155950000Y-127550000D01*
G75*
G02*
X155700000Y-127300000I0J250000D01*
G01*
X155700000Y-126100000D01*
G75*
G02*
X155950000Y-125850000I250000J0D01*
G01*
X157400000Y-125850000D01*
G75*
G02*
X157650000Y-126100000I0J-250000D01*
G01*
X157650000Y-127300000D01*
G75*
G02*
X157400000Y-127550000I-250000J0D01*
G01*
G37*
X156650000Y-133475000D03*
X156650000Y-135975000D03*
G36*
G01*
X157375000Y-139325000D02*
X155925000Y-139325000D01*
G75*
G02*
X155675000Y-139075000I0J250000D01*
G01*
X155675000Y-137875000D01*
G75*
G02*
X155925000Y-137625000I250000J0D01*
G01*
X157375000Y-137625000D01*
G75*
G02*
X157625000Y-137875000I0J-250000D01*
G01*
X157625000Y-139075000D01*
G75*
G02*
X157375000Y-139325000I-250000J0D01*
G01*
G37*
X138443000Y-145895000D03*
X138443000Y-143395000D03*
G36*
G01*
X137718000Y-140045000D02*
X139168000Y-140045000D01*
G75*
G02*
X139418000Y-140295000I0J-250000D01*
G01*
X139418000Y-141495000D01*
G75*
G02*
X139168000Y-141745000I-250000J0D01*
G01*
X137718000Y-141745000D01*
G75*
G02*
X137468000Y-141495000I0J250000D01*
G01*
X137468000Y-140295000D01*
G75*
G02*
X137718000Y-140045000I250000J0D01*
G01*
G37*
X133068000Y-145895000D03*
X133068000Y-143395000D03*
G36*
G01*
X132343000Y-140045000D02*
X133793000Y-140045000D01*
G75*
G02*
X134043000Y-140295000I0J-250000D01*
G01*
X134043000Y-141495000D01*
G75*
G02*
X133793000Y-141745000I-250000J0D01*
G01*
X132343000Y-141745000D01*
G75*
G02*
X132093000Y-141495000I0J250000D01*
G01*
X132093000Y-140295000D01*
G75*
G02*
X132343000Y-140045000I250000J0D01*
G01*
G37*
X127843000Y-145895000D03*
X127843000Y-143395000D03*
G36*
G01*
X127118000Y-140045000D02*
X128568000Y-140045000D01*
G75*
G02*
X128818000Y-140295000I0J-250000D01*
G01*
X128818000Y-141495000D01*
G75*
G02*
X128568000Y-141745000I-250000J0D01*
G01*
X127118000Y-141745000D01*
G75*
G02*
X126868000Y-141495000I0J250000D01*
G01*
X126868000Y-140295000D01*
G75*
G02*
X127118000Y-140045000I250000J0D01*
G01*
G37*
X122693000Y-145895000D03*
X122693000Y-143395000D03*
G36*
G01*
X121968000Y-140045000D02*
X123418000Y-140045000D01*
G75*
G02*
X123668000Y-140295000I0J-250000D01*
G01*
X123668000Y-141495000D01*
G75*
G02*
X123418000Y-141745000I-250000J0D01*
G01*
X121968000Y-141745000D01*
G75*
G02*
X121718000Y-141495000I0J250000D01*
G01*
X121718000Y-140295000D01*
G75*
G02*
X121968000Y-140045000I250000J0D01*
G01*
G37*
D14*
X97077000Y-98751000D03*
D15*
X143469000Y-132183000D03*
X146009000Y-132183000D03*
X143469000Y-129643000D03*
X146009000Y-129643000D03*
X143469000Y-127103000D03*
X146009000Y-127103000D03*
X143469000Y-124563000D03*
X146009000Y-124563000D03*
X143469000Y-122023000D03*
X146009000Y-122023000D03*
X118069000Y-134723000D03*
X120609000Y-134723000D03*
X123149000Y-134723000D03*
X125689000Y-134723000D03*
X128229000Y-134723000D03*
X130769000Y-134723000D03*
X133309000Y-134723000D03*
X135849000Y-134723000D03*
X138389000Y-134723000D03*
X140929000Y-134723000D03*
X143469000Y-134723000D03*
X146009000Y-134723000D03*
X148549000Y-134723000D03*
X120609000Y-122023000D03*
X118069000Y-119483000D03*
X120609000Y-119483000D03*
X123149000Y-119483000D03*
X125689000Y-119483000D03*
X128229000Y-119483000D03*
X130769000Y-119483000D03*
X133309000Y-119483000D03*
X135849000Y-119483000D03*
X138389000Y-119483000D03*
X140929000Y-119483000D03*
X143469000Y-119483000D03*
X146009000Y-119483000D03*
X148549000Y-119483000D03*
X151089000Y-134723000D03*
X151089000Y-132183000D03*
X151089000Y-129643000D03*
X151089000Y-119483000D03*
X151089000Y-122023000D03*
X151089000Y-124563000D03*
X151089000Y-127103000D03*
D16*
X109150000Y-121855000D03*
X109150000Y-119315000D03*
D17*
X109150000Y-116775000D03*
D13*
X127800000Y-108800000D03*
X127800000Y-111300000D03*
G36*
G01*
X128525000Y-114650000D02*
X127075000Y-114650000D01*
G75*
G02*
X126825000Y-114400000I0J250000D01*
G01*
X126825000Y-113200000D01*
G75*
G02*
X127075000Y-112950000I250000J0D01*
G01*
X128525000Y-112950000D01*
G75*
G02*
X128775000Y-113200000I0J-250000D01*
G01*
X128775000Y-114400000D01*
G75*
G02*
X128525000Y-114650000I-250000J0D01*
G01*
G37*
X133400000Y-108800000D03*
X133400000Y-111300000D03*
G36*
G01*
X134125000Y-114650000D02*
X132675000Y-114650000D01*
G75*
G02*
X132425000Y-114400000I0J250000D01*
G01*
X132425000Y-113200000D01*
G75*
G02*
X132675000Y-112950000I250000J0D01*
G01*
X134125000Y-112950000D01*
G75*
G02*
X134375000Y-113200000I0J-250000D01*
G01*
X134375000Y-114400000D01*
G75*
G02*
X134125000Y-114650000I-250000J0D01*
G01*
G37*
D16*
X165403000Y-139645000D03*
X162863000Y-139645000D03*
X165403000Y-137105000D03*
X162863000Y-137105000D03*
X165403000Y-134565000D03*
X162863000Y-134565000D03*
X165403000Y-132025000D03*
X162863000Y-132025000D03*
X165403000Y-129485000D03*
X162863000Y-129485000D03*
X165403000Y-126945000D03*
X162863000Y-126945000D03*
X165403000Y-124405000D03*
X162863000Y-124405000D03*
X165403000Y-121865000D03*
X162863000Y-121865000D03*
X165403000Y-119325000D03*
X162863000Y-119325000D03*
X165403000Y-116785000D03*
X162863000Y-116785000D03*
X165403000Y-114245000D03*
X162863000Y-114245000D03*
X165403000Y-111705000D03*
X162863000Y-111705000D03*
X165403000Y-109165000D03*
X162863000Y-109165000D03*
X165403000Y-106625000D03*
X162863000Y-106625000D03*
X165403000Y-104085000D03*
X162863000Y-104085000D03*
X165403000Y-101545000D03*
X162863000Y-101545000D03*
X165403000Y-99005000D03*
X162863000Y-99005000D03*
X165403000Y-96465000D03*
X162863000Y-96465000D03*
X165403000Y-93925000D03*
X162863000Y-93925000D03*
X165403000Y-91385000D03*
D17*
X162863000Y-91385000D03*
M02*
